<?xml version="1.0" encoding="utf-8" ?>
<svg baseProfile="full" height="100%" version="1.1" width="100%" xmlns="http://www.w3.org/2000/svg" xmlns:ev="http://www.w3.org/2001/xml-events" xmlns:xlink="http://www.w3.org/1999/xlink"><defs /><path d="M 150.0 152.38504711 C 116.331143926 166.331143926 104.648178534 190.929635707 111.517703403 225.654864398" fill="none" stroke="red" stroke-opacity="0.4" stroke-width="0.34" /><path d="M 150.0 152.38504711 C 116.331143926 166.331143926 106.054901006 191.210980201 112.711347002 224.859101999" fill="none" stroke="red" stroke-opacity="0.4" stroke-width="0.34" /><path d="M 150.0 152.38504711 C 116.331143926 166.331143926 121.99388493 194.398776986 126.236023343 215.842651104" fill="none" stroke="red" stroke-opacity="0.4" stroke-width="0.34" /><path d="M 150.0 152.38504711 C 183.668856074 166.331143926 298.909074384 170.218185123 276.353539532 284.235693021" fill="none" stroke="purple" stroke-opacity="0.4" stroke-width="0.34" /><path d="M 150.0 152.38504711 C 116.331143926 166.331143926 61.4825901293 182.296518026 74.8904870729 250.073008618" fill="none" stroke="red" stroke-opacity="0.4" stroke-width="0.34" /><path d="M 150.0 152.38504711 C 116.331143926 166.331143926 -13.6737076563 167.265258469 11.1182536971 292.587830869" fill="none" stroke="red" stroke-opacity="0.4" stroke-width="0.34" /><path d="M 150.0 152.38504711 C 116.331143926 166.331143926 -2.6592199509 169.46815601 20.4643564345 286.35709571" fill="none" stroke="red" stroke-opacity="0.4" stroke-width="0.34" /><path d="M 150.0 152.38504711 C 116.331143926 166.331143926 37.0221149612 177.404422992 54.135085638 263.909942908" fill="none" stroke="red" stroke-opacity="0.4" stroke-width="0.34" /><path d="M 150.0 152.38504711 C 183.668856074 166.331143926 200.961197944 189.807760411 193.242010372 228.828006915" fill="none" stroke="purple" stroke-opacity="0.4" stroke-width="0.34" /><path d="M 150.0 152.38504711 C 116.331143926 166.331143926 33.5008225821 176.700164516 51.1471699742 265.901886684" fill="none" stroke="red" stroke-opacity="0.4" stroke-width="0.34" /><path d="M 150.0 152.38504711 C 116.331143926 166.331143926 91.7126567926 188.342531359 100.541549233 232.972300511" fill="none" stroke="red" stroke-opacity="0.4" stroke-width="0.34" /><path d="M 150.0 152.38504711 C 183.668856074 166.331143926 308.469533168 168.306093366 284.465857818 289.643905212" fill="none" stroke="purple" stroke-opacity="0.4" stroke-width="0.34" /><path d="M 150.0 152.38504711 C 183.668856074 166.331143926 239.093599235 182.181280153 225.598425815 250.398950543" fill="none" stroke="purple" stroke-opacity="0.4" stroke-width="0.34" /><path d="M 150.0 58.0119010656 C 250.400747604 99.5992523957 211.405106875 187.718978625 202.103960965 234.735973977" fill="none" stroke="purple" stroke-opacity="0.4" stroke-width="0.34" /><path d="M 150.0 58.0119010656 C 49.5992523957 99.5992523957 75.1232533386 185.024650668 86.464973619 242.356684254" fill="none" stroke="red" stroke-opacity="0.4" stroke-width="0.34" /><path d="M 150.0 58.0119010656 C 250.400747604 99.5992523957 187.769151458 192.446169708 182.048187739 221.365458493" fill="none" stroke="purple" stroke-opacity="0.4" stroke-width="0.34" /><path d="M 150.0 58.0119010656 C 49.5992523957 99.5992523957 64.991797743 182.998359549 77.8681484731 248.087901018" fill="none" stroke="red" stroke-opacity="0.4" stroke-width="0.34" /><path d="M 150.0 58.0119010656 C 49.5992523957 99.5992523957 33.5008225821 176.700164516 51.1471699742 265.901886684" fill="none" stroke="red" stroke-opacity="0.4" stroke-width="0.34" /><path d="M 150.0 58.0119010656 C 250.400747604 99.5992523957 228.558728284 184.288254343 216.659291389 244.439527593" fill="none" stroke="purple" stroke-opacity="0.4" stroke-width="0.34" /><path d="M 150.0 58.0119010656 C 250.400747604 99.5992523957 319.610767221 166.077846556 293.919508397 295.946338931" fill="none" stroke="purple" stroke-opacity="0.4" stroke-width="0.34" /><path d="M 150.0 58.0119010656 C 49.5992523957 99.5992523957 29.4674615699 175.893492314 47.7247496669 268.183500222" fill="none" stroke="red" stroke-opacity="0.4" stroke-width="0.34" /><path d="M 150.0 58.0119010656 C 49.5992523957 99.5992523957 10.5367343568 172.107346871 31.6614949648 278.89233669" fill="none" stroke="red" stroke-opacity="0.4" stroke-width="0.34" /><path d="M 150.0 58.0119010656 C 250.400747604 99.5992523957 213.632701364 187.273459727 203.994137568 235.996091712" fill="none" stroke="purple" stroke-opacity="0.4" stroke-width="0.34" /><path d="M 150.0 58.0119010656 C 49.5992523957 99.5992523957 79.2641053925 185.852821079 89.9786030997 240.0142646" fill="none" stroke="red" stroke-opacity="0.4" stroke-width="0.34" /><path d="M 150.0 58.0119010656 C 49.5992523957 99.5992523957 144.334360753 198.866872151 145.192545682 203.204969545" fill="none" stroke="red" stroke-opacity="0.4" stroke-width="0.34" /><path d="M 150.0 58.0119010656 C 49.5992523957 99.5992523957 106.054901006 191.210980201 112.711347002 224.859101999" fill="none" stroke="red" stroke-opacity="0.4" stroke-width="0.34" /><path d="M 150.0 58.0119010656 C 250.400747604 99.5992523957 228.608902631 184.278219474 216.701865735 244.46791049" fill="none" stroke="purple" stroke-opacity="0.4" stroke-width="0.34" /><path d="M 150.0 58.0119010656 C 250.400747604 99.5992523957 273.506541812 175.298691638 254.798775884 269.865850589" fill="none" stroke="purple" stroke-opacity="0.4" stroke-width="0.34" /><path d="M 150.0 58.0119010656 C 49.5992523957 99.5992523957 49.3623297523 179.87246595 64.60610511 256.92926326" fill="none" stroke="red" stroke-opacity="0.4" stroke-width="0.34" /><path d="M 150.0 58.0119010656 C 49.5992523957 99.5992523957 91.7126567926 188.342531359 100.541549233 232.972300511" fill="none" stroke="red" stroke-opacity="0.4" stroke-width="0.34" /><path d="M 150.0 58.0119010656 C 250.400747604 99.5992523957 176.444309383 194.711138123 172.438740586 214.959160391" fill="none" stroke="purple" stroke-opacity="0.4" stroke-width="0.34" /><path d="M 150.0 58.0119010656 C 250.400747604 99.5992523957 239.093599235 182.181280153 225.598425815 250.398950543" fill="none" stroke="purple" stroke-opacity="0.4" stroke-width="0.34" /><path d="M 150.0 58.0119010656 C 250.400747604 99.5992523957 167.776609 196.4446782 165.083952925 210.055968617" fill="none" stroke="purple" stroke-opacity="0.4" stroke-width="0.34" /><path d="M 150.0 58.0119010656 C 250.400747604 99.5992523957 236.396104217 182.720779157 223.309525392 248.873016928" fill="none" stroke="purple" stroke-opacity="0.4" stroke-width="0.34" /><path d="M 150.0 78.8428066846 C 235.671072983 114.328927017 324.149745841 165.170050832 297.770959471 298.513972981" fill="none" stroke="purple" stroke-opacity="0.4" stroke-width="0.34" /><path d="M 297.770959471 298.513972981 C 267.238493713 333.403129377 73.9427137787 286.543930006 54.135085638 263.909942908" fill="none" stroke="red" stroke-opacity="0.4" stroke-width="0.34" /><path d="M 150.0 109.577628196 C 213.938272274 136.061727726 324.149745841 165.170050832 297.770959471 298.513972981" fill="none" stroke="purple" stroke-opacity="0.4" stroke-width="0.34" /><path d="M 297.770959471 298.513972981 C 267.238493713 333.403129377 71.5721618583 289.241329422 51.1471699742 265.901886684" fill="none" stroke="blue" stroke-opacity="0.4" stroke-width="0.34" /><path d="M 297.770959471 298.513972981 C 267.238493713 333.403129377 53.253480165 310.085758471 28.057747001 281.294835333" fill="none" stroke="magenta" stroke-opacity="0.4" stroke-width="0.34" /><path d="M 297.770959471 298.513972981 C 267.238493713 333.403129377 119.468923368 234.740647351 111.517703403 225.654864398" fill="none" stroke="purple" stroke-opacity="0.4" stroke-width="0.34" /><path d="M 150.0 101.310654005 C 219.783905784 130.216094216 324.149745841 165.170050832 297.770959471 298.513972981" fill="none" stroke="purple" stroke-opacity="0.4" stroke-width="0.34" /><path d="M 150.0 166.247019637 C 173.8669613 176.1330387 324.149745841 165.170050832 297.770959471 298.513972981" fill="none" stroke="purple" stroke-opacity="0.4" stroke-width="0.34" /><path d="M 150.0 31.5727813667 C 269.096028432 80.903971568 324.149745841 165.170050832 297.770959471 298.513972981" fill="none" stroke="purple" stroke-opacity="0.4" stroke-width="0.34" /><path d="M 297.770959471 298.513972981 C 267.238493713 333.403129377 67.4430531346 293.939752336 45.9427158863 269.371522742" fill="none" stroke="green" stroke-opacity="0.4" stroke-width="0.34" /><path d="M 150.0 83.1476894719 C 232.627061172 117.372938828 324.149745841 165.170050832 297.770959471 298.513972981" fill="none" stroke="purple" stroke-opacity="0.4" stroke-width="0.34" /><path d="M 202.103960965 234.735973977 C 191.338229933 247.037871788 120.415936083 233.663062201 112.711347002 224.859101999" fill="none" stroke="purple" stroke-opacity="0.4" stroke-width="0.34" /><path d="M 150.0 166.247019637 C 173.8669613 176.1330387 211.405106875 187.718978625 202.103960965 234.735973977" fill="none" stroke="purple" stroke-opacity="0.4" stroke-width="0.34" /><path d="M 202.103960965 234.735973977 C 191.338229933 247.037871788 92.7720463346 265.118442459 77.8681484731 248.087901018" fill="none" stroke="red" stroke-opacity="0.4" stroke-width="0.34" /><path d="M 202.103960965 234.735973977 C 191.338229933 247.037871788 73.9427137787 286.543930006 54.135085638 263.909942908" fill="none" stroke="magenta" stroke-opacity="0.4" stroke-width="0.34" /><path d="M 150.0 94.7565754431 C 224.418339179 125.581660821 211.405106875 187.718978625 202.103960965 234.735973977" fill="none" stroke="purple" stroke-opacity="0.4" stroke-width="0.34" /><path d="M 202.103960965 234.735973977 C 191.338229933 247.037871788 56.1126209901 306.832404377 31.6614949648 278.89233669" fill="none" stroke="magenta" stroke-opacity="0.4" stroke-width="0.34" /><path d="M 150.0 72.1964799526 C 240.370735685 109.629264315 174.531270709 195.093745858 170.815473443 213.876982295" fill="none" stroke="purple" stroke-opacity="0.4" stroke-width="0.34" /><path d="M 170.815473443 213.876982295 C 166.514576079 218.79157655 146.185862873 204.340023592 145.192545682 203.204969545" fill="none" stroke="red" stroke-opacity="0.4" stroke-width="0.34" /><path d="M 150.0 83.1476894719 C 232.627061172 117.372938828 174.531270709 195.093745858 170.815473443 213.876982295" fill="none" stroke="purple" stroke-opacity="0.4" stroke-width="0.34" /><path d="M 170.815473443 213.876982295 C 166.514576079 218.79157655 115.752904143 238.969024718 106.833919871 228.777386753" fill="none" stroke="red" stroke-opacity="0.4" stroke-width="0.34" /><path d="M 150.0 78.8428066846 C 235.671072983 114.328927017 174.531270709 195.093745858 170.815473443 213.876982295" fill="none" stroke="purple" stroke-opacity="0.4" stroke-width="0.34" /><path d="M 170.815473443 213.876982295 C 166.514576079 218.79157655 39.8140284194 325.378217996 11.1182536971 292.587830869" fill="none" stroke="magenta" stroke-opacity="0.4" stroke-width="0.34" /><path d="M 150.0 21.9349898374 C 275.910976178 74.0890238219 174.531270709 195.093745858 170.815473443 213.876982295" fill="none" stroke="purple" stroke-opacity="0.4" stroke-width="0.34" /><path d="M 150.0 151.509559083 C 184.287919595 165.712080405 174.531270709 195.093745858 170.815473443 213.876982295" fill="none" stroke="purple" stroke-opacity="0.4" stroke-width="0.34" /><path d="M 150.0 194.271346255 C 154.05076991 195.94923009 174.531270709 195.093745858 170.815473443 213.876982295" fill="none" stroke="purple" stroke-opacity="0.4" stroke-width="0.34" /><path d="M 150.0 28.1009428818 C 271.550988968 78.4490110322 174.531270709 195.093745858 170.815473443 213.876982295" fill="none" stroke="purple" stroke-opacity="0.4" stroke-width="0.34" /><path d="M 170.815473443 213.876982295 C 166.514576079 218.79157655 110.760664409 244.649585616 100.541549233 232.972300511" fill="none" stroke="blue" stroke-opacity="0.4" stroke-width="0.34" /><path d="M 170.815473443 213.876982295 C 166.514576079 218.79157655 110.162109582 245.330668121 99.7871125433 233.475258304" fill="none" stroke="red" stroke-opacity="0.4" stroke-width="0.34" /><path d="M 245.378140632 263.585427088 C 225.671089778 286.104485482 92.7720463346 265.118442459 77.8681484731 248.087901018" fill="none" stroke="magenta" stroke-opacity="0.4" stroke-width="0.34" /><path d="M 150.0 124.270093597 C 203.549130356 146.450869644 262.404216696 177.519156661 245.378140632 263.585427088" fill="none" stroke="purple" stroke-opacity="0.4" stroke-width="0.34" /><path d="M 150.0 194.271346255 C 154.05076991 195.94923009 262.404216696 177.519156661 245.378140632 263.585427088" fill="none" stroke="purple" stroke-opacity="0.4" stroke-width="0.34" /><path d="M 245.378140632 263.585427088 C 225.671089778 286.104485482 53.253480165 310.085758471 28.057747001 281.294835333" fill="none" stroke="green" stroke-opacity="0.4" stroke-width="0.34" /><path d="M 150.0 32.3752323088 C 268.528609929 81.4713900708 262.404216696 177.519156661 245.378140632 263.585427088" fill="none" stroke="purple" stroke-opacity="0.4" stroke-width="0.34" /><path d="M 150.0 94.7565754431 C 224.418339179 125.581660821 262.404216696 177.519156661 245.378140632 263.585427088" fill="none" stroke="purple" stroke-opacity="0.4" stroke-width="0.34" /><path d="M 245.378140632 263.585427088 C 225.671089778 286.104485482 119.468923368 234.740647351 111.517703403 225.654864398" fill="none" stroke="purple" stroke-opacity="0.4" stroke-width="0.34" /><path d="M 245.378140632 263.585427088 C 225.671089778 286.104485482 146.185862873 204.340023592 145.192545682 203.204969545" fill="none" stroke="purple" stroke-opacity="0.4" stroke-width="0.34" /><path d="M 245.378140632 263.585427088 C 225.671089778 286.104485482 90.4096299396 267.806584638 74.8904870729 250.073008618" fill="none" stroke="blue" stroke-opacity="0.4" stroke-width="0.34" /><path d="M 150.0 21.9349898374 C 275.910976178 74.0890238219 262.404216696 177.519156661 245.378140632 263.585427088" fill="none" stroke="purple" stroke-opacity="0.4" stroke-width="0.34" /><path d="M 150.0 31.5727813667 C 269.096028432 80.903971568 262.404216696 177.519156661 245.378140632 263.585427088" fill="none" stroke="purple" stroke-opacity="0.4" stroke-width="0.34" /><path d="M 245.378140632 263.585427088 C 225.671089778 286.104485482 100.391049067 256.448945138 87.4713710009 241.685752666" fill="none" stroke="green" stroke-opacity="0.4" stroke-width="0.34" /><path d="M 150.0 115.449416801 C 209.786290733 140.213709267 262.404216696 177.519156661 245.378140632 263.585427088" fill="none" stroke="purple" stroke-opacity="0.4" stroke-width="0.34" /><path d="M 245.378140632 263.585427088 C 225.671089778 286.104485482 131.146141043 221.453395605 126.236023343 215.842651104" fill="none" stroke="red" stroke-opacity="0.4" stroke-width="0.34" /><path d="M 165.083952925 210.055968617 C 161.967303498 213.617334087 99.592593717 257.357490095 86.464973619 242.356684254" fill="none" stroke="blue" stroke-opacity="0.4" stroke-width="0.34" /><path d="M 150.0 78.8428066846 C 64.3289270172 114.328927017 75.1232533386 185.024650668 86.464973619 242.356684254" fill="none" stroke="crimson" stroke-opacity="0.9" stroke-width="0.34" /><path d="M 150.0 124.270093597 C 96.4508696441 146.450869644 75.1232533386 185.024650668 86.464973619 242.356684254" fill="none" stroke="crimson" stroke-opacity="0.9" stroke-width="0.34" /><path d="M 254.798775884 269.865850589 C 233.145231455 294.609148562 99.592593717 257.357490095 86.464973619 242.356684254" fill="none" stroke="green" stroke-opacity="0.4" stroke-width="0.34" /><path d="M 150.0 31.5727813667 C 30.903971568 80.903971568 75.1232533386 185.024650668 86.464973619 242.356684254" fill="none" stroke="crimson" stroke-opacity="0.9" stroke-width="0.34" /><path d="M 193.242010372 228.828006915 C 184.307337377 239.037572232 99.592593717 257.357490095 86.464973619 242.356684254" fill="none" stroke="green" stroke-opacity="0.4" stroke-width="0.34" /><path d="M 150.0 32.3752323088 C 31.4713900708 81.4713900708 75.1232533386 185.024650668 86.464973619 242.356684254" fill="none" stroke="crimson" stroke-opacity="0.9" stroke-width="0.34" /><path d="M 150.0 166.247019637 C 126.1330387 176.1330387 75.1232533386 185.024650668 86.464973619 242.356684254" fill="none" stroke="crimson" stroke-opacity="0.9" stroke-width="0.34" /><path d="M 150.0 151.509559083 C 115.712080405 165.712080405 75.1232533386 185.024650668 86.464973619 242.356684254" fill="none" stroke="crimson" stroke-opacity="0.9" stroke-width="0.34" /><path d="M 170.215548257 213.477032171 C 166.038607556 218.249982332 99.592593717 257.357490095 86.464973619 242.356684254" fill="none" stroke="purple" stroke-opacity="0.4" stroke-width="0.34" /><path d="M 150.0 21.9349898374 C 24.0890238219 74.0890238219 75.1232533386 185.024650668 86.464973619 242.356684254" fill="none" stroke="crimson" stroke-opacity="0.9" stroke-width="0.34" /><path d="M 207.124832751 238.083221834 C 195.321688167 251.570562182 99.592593717 257.357490095 86.464973619 242.356684254" fill="none" stroke="blue" stroke-opacity="0.4" stroke-width="0.34" /><path d="M 150.0 133.273431281 C 197.182809227 152.817190773 187.769151458 192.446169708 182.048187739 221.365458493" fill="none" stroke="purple" stroke-opacity="0.4" stroke-width="0.34" /><path d="M 150.0 78.8428066846 C 235.671072983 114.328927017 187.769151458 192.446169708 182.048187739 221.365458493" fill="none" stroke="purple" stroke-opacity="0.4" stroke-width="0.34" /><path d="M 150.0 124.270093597 C 203.549130356 146.450869644 187.769151458 192.446169708 182.048187739 221.365458493" fill="none" stroke="purple" stroke-opacity="0.4" stroke-width="0.34" /><path d="M 182.048187739 221.365458493 C 175.426384658 228.932129496 47.2290375047 316.940840604 20.4643564345 286.35709571" fill="none" stroke="red" stroke-opacity="0.4" stroke-width="0.34" /><path d="M 150.0 194.271346255 C 154.05076991 195.94923009 187.769151458 192.446169708 182.048187739 221.365458493" fill="none" stroke="purple" stroke-opacity="0.4" stroke-width="0.34" /><path d="M 182.048187739 221.365458493 C 175.426384658 228.932129496 71.5721618583 289.241329422 51.1471699742 265.901886684" fill="none" stroke="purple" stroke-opacity="0.4" stroke-width="0.34" /><path d="M 150.0 94.7565754431 C 224.418339179 125.581660821 187.769151458 192.446169708 182.048187739 221.365458493" fill="none" stroke="purple" stroke-opacity="0.4" stroke-width="0.34" /><path d="M 182.048187739 221.365458493 C 175.426384658 228.932129496 68.8568827323 292.33098642 47.7247496669 268.183500222" fill="none" stroke="blue" stroke-opacity="0.4" stroke-width="0.34" /><path d="M 150.0 101.310654005 C 219.783905784 130.216094216 187.769151458 192.446169708 182.048187739 221.365458493" fill="none" stroke="purple" stroke-opacity="0.4" stroke-width="0.34" /><path d="M 182.048187739 221.365458493 C 175.426384658 228.932129496 110.162109582 245.330668121 99.7871125433 233.475258304" fill="none" stroke="magenta" stroke-opacity="0.4" stroke-width="0.34" /><path d="M 182.048187739 221.365458493 C 175.426384658 228.932129496 90.4096299396 267.806584638 74.8904870729 250.073008618" fill="none" stroke="blue" stroke-opacity="0.4" stroke-width="0.34" /><path d="M 150.0 28.1009428818 C 271.550988968 78.4490110322 187.769151458 192.446169708 182.048187739 221.365458493" fill="none" stroke="purple" stroke-opacity="0.4" stroke-width="0.34" /><path d="M 182.048187739 221.365458493 C 175.426384658 228.932129496 100.391049067 256.448945138 87.4713710009 241.685752666" fill="none" stroke="green" stroke-opacity="0.4" stroke-width="0.34" /><path d="M 150.0 72.1964799526 C 240.370735685 109.629264315 187.769151458 192.446169708 182.048187739 221.365458493" fill="none" stroke="purple" stroke-opacity="0.4" stroke-width="0.34" /><path d="M 150.0 115.449416801 C 209.786290733 140.213709267 187.769151458 192.446169708 182.048187739 221.365458493" fill="none" stroke="purple" stroke-opacity="0.4" stroke-width="0.34" /><path d="M 150.0 83.1476894719 C 232.627061172 117.372938828 187.769151458 192.446169708 182.048187739 221.365458493" fill="none" stroke="purple" stroke-opacity="0.4" stroke-width="0.34" /><path d="M 150.0 133.273431281 C 102.817190773 152.817190773 49.3623297523 179.87246595 64.60610511 256.92926326" fill="none" stroke="red" stroke-opacity="0.4" stroke-width="0.34" /><path d="M 150.0 133.273431281 C 102.817190773 152.817190773 99.1282867053 189.825657341 106.833919871 228.777386753" fill="none" stroke="red" stroke-opacity="0.4" stroke-width="0.34" /><path d="M 150.0 133.273431281 C 102.817190773 152.817190773 64.991797743 182.998359549 77.8681484731 248.087901018" fill="none" stroke="red" stroke-opacity="0.4" stroke-width="0.34" /><path d="M 150.0 133.273431281 C 102.817190773 152.817190773 -13.6737076563 167.265258469 11.1182536971 292.587830869" fill="none" stroke="red" stroke-opacity="0.4" stroke-width="0.34" /><path d="M 150.0 133.273431281 C 102.817190773 152.817190773 37.0221149612 177.404422992 54.135085638 263.909942908" fill="none" stroke="red" stroke-opacity="0.4" stroke-width="0.34" /><path d="M 150.0 133.273431281 C 197.182809227 152.817190773 192.418825582 191.516234884 185.993567063 223.995711375" fill="none" stroke="purple" stroke-opacity="0.4" stroke-width="0.34" /><path d="M 150.0 133.273431281 C 197.182809227 152.817190773 173.824252096 195.235149581 170.215548257 213.477032171" fill="none" stroke="purple" stroke-opacity="0.4" stroke-width="0.34" /><path d="M 150.0 133.273431281 C 197.182809227 152.817190773 318.383902525 166.323219495 292.878479182 295.252319455" fill="none" stroke="purple" stroke-opacity="0.4" stroke-width="0.34" /><path d="M 150.0 133.273431281 C 197.182809227 152.817190773 217.32226102 186.535547796 207.124832751 238.083221834" fill="none" stroke="purple" stroke-opacity="0.4" stroke-width="0.34" /><path d="M 150.0 133.273431281 C 197.182809227 152.817190773 213.632701364 187.273459727 203.994137568 235.996091712" fill="none" stroke="purple" stroke-opacity="0.4" stroke-width="0.34" /><path d="M 223.309525392 248.873016928 C 208.162296317 266.181610618 115.752904143 238.969024718 106.833919871 228.777386753" fill="none" stroke="green" stroke-opacity="0.4" stroke-width="0.34" /><path d="M 150.0 68.5749343896 C 57.068444889 107.068444889 99.1282867053 189.825657341 106.833919871 228.777386753" fill="none" stroke="crimson" stroke-opacity="0.9" stroke-width="0.34" /><path d="M 150.0 124.270093597 C 96.4508696441 146.450869644 99.1282867053 189.825657341 106.833919871 228.777386753" fill="none" stroke="crimson" stroke-opacity="0.9" stroke-width="0.34" /><path d="M 254.798775884 269.865850589 C 233.145231455 294.609148562 115.752904143 238.969024718 106.833919871 228.777386753" fill="none" stroke="blue" stroke-opacity="0.4" stroke-width="0.34" /><path d="M 150.0 21.9349898374 C 24.0890238219 74.0890238219 99.1282867053 189.825657341 106.833919871 228.777386753" fill="none" stroke="crimson" stroke-opacity="0.9" stroke-width="0.34" /><path d="M 150.0 31.5727813667 C 30.903971568 80.903971568 99.1282867053 189.825657341 106.833919871 228.777386753" fill="none" stroke="crimson" stroke-opacity="0.9" stroke-width="0.34" /><path d="M 150.0 101.310654005 C 80.2160942159 130.216094216 99.1282867053 189.825657341 106.833919871 228.777386753" fill="none" stroke="crimson" stroke-opacity="0.9" stroke-width="0.34" /><path d="M 150.0 194.271346255 C 145.94923009 195.94923009 99.1282867053 189.825657341 106.833919871 228.777386753" fill="none" stroke="crimson" stroke-opacity="0.9" stroke-width="0.34" /><path d="M 150.0 32.3752323088 C 31.4713900708 81.4713900708 99.1282867053 189.825657341 106.833919871 228.777386753" fill="none" stroke="crimson" stroke-opacity="0.9" stroke-width="0.34" /><path d="M 292.878479182 295.252319455 C 263.356898698 328.986346923 115.752904143 238.969024718 106.833919871 228.777386753" fill="none" stroke="blue" stroke-opacity="0.4" stroke-width="0.34" /><path d="M 150.0 78.8428066846 C 235.671072983 114.328927017 236.396104217 182.720779157 223.309525392 248.873016928" fill="none" stroke="purple" stroke-opacity="0.4" stroke-width="0.34" /><path d="M 150.0 78.8428066846 C 235.671072983 114.328927017 167.776609 196.4446782 165.083952925 210.055968617" fill="none" stroke="purple" stroke-opacity="0.4" stroke-width="0.34" /><path d="M 150.0 78.8428066846 C 235.671072983 114.328927017 325.610007806 164.877998439 299.010032837 299.340021891" fill="none" stroke="purple" stroke-opacity="0.4" stroke-width="0.34" /><path d="M 150.0 78.8428066846 C 64.3289270172 114.328927017 144.334360753 198.866872151 145.192545682 203.204969545" fill="none" stroke="red" stroke-opacity="0.4" stroke-width="0.34" /><path d="M 150.0 78.8428066846 C 235.671072983 114.328927017 200.961197944 189.807760411 193.242010372 228.828006915" fill="none" stroke="purple" stroke-opacity="0.4" stroke-width="0.34" /><path d="M 150.0 78.8428066846 C 235.671072983 114.328927017 228.558728284 184.288254343 216.659291389 244.439527593" fill="none" stroke="purple" stroke-opacity="0.4" stroke-width="0.34" /><path d="M 150.0 166.247019637 C 126.1330387 176.1330387 64.991797743 182.998359549 77.8681484731 248.087901018" fill="none" stroke="crimson" stroke-opacity="0.9" stroke-width="0.34" /><path d="M 254.798775884 269.865850589 C 233.145231455 294.609148562 92.7720463346 265.118442459 77.8681484731 248.087901018" fill="none" stroke="magenta" stroke-opacity="0.4" stroke-width="0.34" /><path d="M 150.0 41.6077738657 C 37.9997828132 87.9997828132 64.991797743 182.998359549 77.8681484731 248.087901018" fill="none" stroke="crimson" stroke-opacity="0.9" stroke-width="0.34" /><path d="M 225.284615648 250.189743765 C 209.729293021 267.964662051 92.7720463346 265.118442459 77.8681484731 248.087901018" fill="none" stroke="green" stroke-opacity="0.4" stroke-width="0.34" /><path d="M 150.0 28.1009428818 C 28.4490110322 78.4490110322 64.991797743 182.998359549 77.8681484731 248.087901018" fill="none" stroke="crimson" stroke-opacity="0.9" stroke-width="0.34" /><path d="M 172.438740586 214.959160391 C 167.802443434 220.257012773 92.7720463346 265.118442459 77.8681484731 248.087901018" fill="none" stroke="blue" stroke-opacity="0.4" stroke-width="0.34" /><path d="M 261.889100948 274.592733965 C 238.770552109 301.010078455 92.7720463346 265.118442459 77.8681484731 248.087901018" fill="none" stroke="magenta" stroke-opacity="0.4" stroke-width="0.34" /><path d="M 169.448684001 212.965789334 C 165.43019295 217.557680598 92.7720463346 265.118442459 77.8681484731 248.087901018" fill="none" stroke="purple" stroke-opacity="0.4" stroke-width="0.34" /><path d="M 203.994137568 235.996091712 C 192.837857861 248.744265756 92.7720463346 265.118442459 77.8681484731 248.087901018" fill="none" stroke="magenta" stroke-opacity="0.4" stroke-width="0.34" /><path d="M 150.0 124.270093597 C 96.4508696441 146.450869644 37.0221149612 177.404422992 54.135085638 263.909942908" fill="none" stroke="red" stroke-opacity="0.4" stroke-width="0.34" /><path d="M 150.0 124.270093597 C 96.4508696441 146.450869644 33.5008225821 176.700164516 51.1471699742 265.901886684" fill="none" stroke="red" stroke-opacity="0.4" stroke-width="0.34" /><path d="M 150.0 124.270093597 C 203.549130356 146.450869644 318.383902525 166.323219495 292.878479182 295.252319455" fill="none" stroke="purple" stroke-opacity="0.4" stroke-width="0.34" /><path d="M 150.0 124.270093597 C 203.549130356 146.450869644 213.632701364 187.273459727 203.994137568 235.996091712" fill="none" stroke="purple" stroke-opacity="0.4" stroke-width="0.34" /><path d="M 150.0 124.270093597 C 96.4508696441 146.450869644 79.2641053925 185.852821079 89.9786030997 240.0142646" fill="none" stroke="red" stroke-opacity="0.4" stroke-width="0.34" /><path d="M 150.0 124.270093597 C 96.4508696441 146.450869644 104.648178534 190.929635707 111.517703403 225.654864398" fill="none" stroke="red" stroke-opacity="0.4" stroke-width="0.34" /><path d="M 150.0 124.270093597 C 203.549130356 146.450869644 238.723770406 182.255245919 225.284615648 250.189743765" fill="none" stroke="purple" stroke-opacity="0.4" stroke-width="0.34" /><path d="M 150.0 124.270093597 C 96.4508696441 146.450869644 106.054901006 191.210980201 112.711347002 224.859101999" fill="none" stroke="red" stroke-opacity="0.4" stroke-width="0.34" /><path d="M 150.0 124.270093597 C 203.549130356 146.450869644 228.608902631 184.278219474 216.701865735 244.46791049" fill="none" stroke="purple" stroke-opacity="0.4" stroke-width="0.34" /><path d="M 150.0 124.270093597 C 96.4508696441 146.450869644 90.8235446274 188.164708925 99.7871125433 233.475258304" fill="none" stroke="red" stroke-opacity="0.4" stroke-width="0.34" /><path d="M 150.0 124.270093597 C 96.4508696441 146.450869644 61.4825901293 182.296518026 74.8904870729 250.073008618" fill="none" stroke="red" stroke-opacity="0.4" stroke-width="0.34" /><path d="M 150.0 124.270093597 C 96.4508696441 146.450869644 49.3623297523 179.87246595 64.60610511 256.92926326" fill="none" stroke="red" stroke-opacity="0.4" stroke-width="0.34" /><path d="M 150.0 124.270093597 C 203.549130356 146.450869644 176.444309383 194.711138123 172.438740586 214.959160391" fill="none" stroke="purple" stroke-opacity="0.4" stroke-width="0.34" /><path d="M 150.0 124.270093597 C 203.549130356 146.450869644 167.776609 196.4446782 165.083952925 210.055968617" fill="none" stroke="purple" stroke-opacity="0.4" stroke-width="0.34" /><path d="M 150.0 124.270093597 C 96.4508696441 146.450869644 121.99388493 194.398776986 126.236023343 215.842651104" fill="none" stroke="red" stroke-opacity="0.4" stroke-width="0.34" /><path d="M 150.0 32.3752323088 C 31.4713900708 81.4713900708 -13.6737076563 167.265258469 11.1182536971 292.587830869" fill="none" stroke="crimson" stroke-opacity="0.9" stroke-width="0.34" /><path d="M 170.215548257 213.477032171 C 166.038607556 218.249982332 39.8140284194 325.378217996 11.1182536971 292.587830869" fill="none" stroke="purple" stroke-opacity="0.4" stroke-width="0.34" /><path d="M 203.994137568 235.996091712 C 192.837857861 248.744265756 39.8140284194 325.378217996 11.1182536971 292.587830869" fill="none" stroke="blue" stroke-opacity="0.4" stroke-width="0.34" /><path d="M 216.701865735 244.46791049 C 202.919912644 260.216416379 39.8140284194 325.378217996 11.1182536971 292.587830869" fill="none" stroke="red" stroke-opacity="0.4" stroke-width="0.34" /><path d="M 150.0 166.247019637 C 126.1330387 176.1330387 -13.6737076563 167.265258469 11.1182536971 292.587830869" fill="none" stroke="crimson" stroke-opacity="0.9" stroke-width="0.34" /><path d="M 254.798775884 269.865850589 C 233.145231455 294.609148562 39.8140284194 325.378217996 11.1182536971 292.587830869" fill="none" stroke="purple" stroke-opacity="0.4" stroke-width="0.34" /><path d="M 150.0 31.5727813667 C 30.903971568 80.903971568 -13.6737076563 167.265258469 11.1182536971 292.587830869" fill="none" stroke="crimson" stroke-opacity="0.9" stroke-width="0.34" /><path d="M 150.0 41.6077738657 C 37.9997828132 87.9997828132 -13.6737076563 167.265258469 11.1182536971 292.587830869" fill="none" stroke="crimson" stroke-opacity="0.9" stroke-width="0.34" /><path d="M 150.0 28.1009428818 C 28.4490110322 78.4490110322 -13.6737076563 167.265258469 11.1182536971 292.587830869" fill="none" stroke="crimson" stroke-opacity="0.9" stroke-width="0.34" /><path d="M 264.023415929 276.015610619 C 240.463874494 302.936873128 39.8140284194 325.378217996 11.1182536971 292.587830869" fill="none" stroke="green" stroke-opacity="0.4" stroke-width="0.34" /><path d="M 261.889100948 274.592733965 C 238.770552109 301.010078455 39.8140284194 325.378217996 11.1182536971 292.587830869" fill="none" stroke="blue" stroke-opacity="0.4" stroke-width="0.34" /><path d="M 150.0 68.5749343896 C 57.068444889 107.068444889 -13.6737076563 167.265258469 11.1182536971 292.587830869" fill="none" stroke="crimson" stroke-opacity="0.9" stroke-width="0.34" /><path d="M 225.598425815 250.398950543 C 209.978263668 268.247960329 39.8140284194 325.378217996 11.1182536971 292.587830869" fill="none" stroke="red" stroke-opacity="0.4" stroke-width="0.34" /><path d="M 150.0 115.449416801 C 90.2137092668 140.213709267 -13.6737076563 167.265258469 11.1182536971 292.587830869" fill="none" stroke="crimson" stroke-opacity="0.9" stroke-width="0.34" /><path d="M 223.309525392 248.873016928 C 208.162296317 266.181610618 39.8140284194 325.378217996 11.1182536971 292.587830869" fill="none" stroke="red" stroke-opacity="0.4" stroke-width="0.34" /><path d="M 225.284615648 250.189743765 C 209.729293021 267.964662051 47.2290375047 316.940840604 20.4643564345 286.35709571" fill="none" stroke="purple" stroke-opacity="0.4" stroke-width="0.34" /><path d="M 216.701865735 244.46791049 C 202.919912644 260.216416379 47.2290375047 316.940840604 20.4643564345 286.35709571" fill="none" stroke="blue" stroke-opacity="0.4" stroke-width="0.34" /><path d="M 207.124832751 238.083221834 C 195.321688167 251.570562182 47.2290375047 316.940840604 20.4643564345 286.35709571" fill="none" stroke="red" stroke-opacity="0.4" stroke-width="0.34" /><path d="M 299.010032837 299.340021891 C 268.221549487 334.521727138 47.2290375047 316.940840604 20.4643564345 286.35709571" fill="none" stroke="purple" stroke-opacity="0.4" stroke-width="0.34" /><path d="M 254.798775884 269.865850589 C 233.145231455 294.609148562 47.2290375047 316.940840604 20.4643564345 286.35709571" fill="none" stroke="green" stroke-opacity="0.4" stroke-width="0.34" /><path d="M 172.438740586 214.959160391 C 167.802443434 220.257012773 47.2290375047 316.940840604 20.4643564345 286.35709571" fill="none" stroke="green" stroke-opacity="0.4" stroke-width="0.34" /><path d="M 165.083952925 210.055968617 C 161.967303498 213.617334087 47.2290375047 316.940840604 20.4643564345 286.35709571" fill="none" stroke="red" stroke-opacity="0.4" stroke-width="0.34" /><path d="M 150.0 28.1009428818 C 28.4490110322 78.4490110322 -2.6592199509 169.46815601 20.4643564345 286.35709571" fill="none" stroke="crimson" stroke-opacity="0.9" stroke-width="0.34" /><path d="M 223.309525392 248.873016928 C 208.162296317 266.181610618 47.2290375047 316.940840604 20.4643564345 286.35709571" fill="none" stroke="green" stroke-opacity="0.4" stroke-width="0.34" /><path d="M 261.889100948 274.592733965 C 238.770552109 301.010078455 47.2290375047 316.940840604 20.4643564345 286.35709571" fill="none" stroke="magenta" stroke-opacity="0.4" stroke-width="0.34" /><path d="M 169.448684001 212.965789334 C 165.43019295 217.557680598 47.2290375047 316.940840604 20.4643564345 286.35709571" fill="none" stroke="blue" stroke-opacity="0.4" stroke-width="0.34" /><path d="M 293.919508397 295.946338931 C 264.182830244 329.926156446 47.2290375047 316.940840604 20.4643564345 286.35709571" fill="none" stroke="purple" stroke-opacity="0.4" stroke-width="0.34" /><path d="M 231.423478972 254.282319315 C 214.599743154 273.506641213 73.9427137787 286.543930006 54.135085638 263.909942908" fill="none" stroke="green" stroke-opacity="0.4" stroke-width="0.34" /><path d="M 150.0 109.577628196 C 213.938272274 136.061727726 245.958490215 180.808301957 231.423478972 254.282319315" fill="none" stroke="purple" stroke-opacity="0.4" stroke-width="0.34" /><path d="M 231.423478972 254.282319315 C 214.599743154 273.506641213 68.8568827323 292.33098642 47.7247496669 268.183500222" fill="none" stroke="green" stroke-opacity="0.4" stroke-width="0.34" /><path d="M 231.423478972 254.282319315 C 214.599743154 273.506641213 110.162109582 245.330668121 99.7871125433 233.475258304" fill="none" stroke="magenta" stroke-opacity="0.4" stroke-width="0.34" /><path d="M 150.0 21.9349898374 C 275.910976178 74.0890238219 245.958490215 180.808301957 231.423478972 254.282319315" fill="none" stroke="purple" stroke-opacity="0.4" stroke-width="0.34" /><path d="M 150.0 31.5727813667 C 269.096028432 80.903971568 245.958490215 180.808301957 231.423478972 254.282319315" fill="none" stroke="purple" stroke-opacity="0.4" stroke-width="0.34" /><path d="M 150.0 41.6077738657 C 262.000217187 87.9997828132 245.958490215 180.808301957 231.423478972 254.282319315" fill="none" stroke="purple" stroke-opacity="0.4" stroke-width="0.34" /><path d="M 231.423478972 254.282319315 C 214.599743154 273.506641213 82.2502090737 277.091011987 64.60610511 256.92926326" fill="none" stroke="red" stroke-opacity="0.4" stroke-width="0.34" /><path d="M 150.0 68.5749343896 C 242.931555111 107.068444889 245.958490215 180.808301957 231.423478972 254.282319315" fill="none" stroke="purple" stroke-opacity="0.4" stroke-width="0.34" /><path d="M 150.0 115.449416801 C 209.786290733 140.213709267 245.958490215 180.808301957 231.423478972 254.282319315" fill="none" stroke="purple" stroke-opacity="0.4" stroke-width="0.34" /><path d="M 231.423478972 254.282319315 C 214.599743154 273.506641213 131.146141043 221.453395605 126.236023343 215.842651104" fill="none" stroke="purple" stroke-opacity="0.4" stroke-width="0.34" /><path d="M 185.993567063 223.995711375 C 178.556568902 232.493897995 73.9427137787 286.543930006 54.135085638 263.909942908" fill="none" stroke="purple" stroke-opacity="0.4" stroke-width="0.34" /><path d="M 150.0 32.3752323088 C 31.4713900708 81.4713900708 37.0221149612 177.404422992 54.135085638 263.909942908" fill="none" stroke="crimson" stroke-opacity="0.9" stroke-width="0.34" /><path d="M 203.994137568 235.996091712 C 192.837857861 248.744265756 73.9427137787 286.543930006 54.135085638 263.909942908" fill="none" stroke="green" stroke-opacity="0.4" stroke-width="0.34" /><path d="M 225.284615648 250.189743765 C 209.729293021 267.964662051 73.9427137787 286.543930006 54.135085638 263.909942908" fill="none" stroke="magenta" stroke-opacity="0.4" stroke-width="0.34" /><path d="M 299.010032837 299.340021891 C 268.221549487 334.521727138 73.9427137787 286.543930006 54.135085638 263.909942908" fill="none" stroke="purple" stroke-opacity="0.4" stroke-width="0.34" /><path d="M 150.0 166.247019637 C 126.1330387 176.1330387 37.0221149612 177.404422992 54.135085638 263.909942908" fill="none" stroke="crimson" stroke-opacity="0.9" stroke-width="0.34" /><path d="M 254.798775884 269.865850589 C 233.145231455 294.609148562 73.9427137787 286.543930006 54.135085638 263.909942908" fill="none" stroke="green" stroke-opacity="0.4" stroke-width="0.34" /><path d="M 150.0 31.5727813667 C 30.903971568 80.903971568 37.0221149612 177.404422992 54.135085638 263.909942908" fill="none" stroke="crimson" stroke-opacity="0.9" stroke-width="0.34" /><path d="M 264.023415929 276.015610619 C 240.463874494 302.936873128 73.9427137787 286.543930006 54.135085638 263.909942908" fill="none" stroke="purple" stroke-opacity="0.4" stroke-width="0.34" /><path d="M 207.124832751 238.083221834 C 195.321688167 251.570562182 73.9427137787 286.543930006 54.135085638 263.909942908" fill="none" stroke="purple" stroke-opacity="0.4" stroke-width="0.34" /><path d="M 284.465857818 289.643905212 C 256.682494874 321.391688133 73.9427137787 286.543930006 54.135085638 263.909942908" fill="none" stroke="green" stroke-opacity="0.4" stroke-width="0.34" /><path d="M 150.0 115.449416801 C 90.2137092668 140.213709267 37.0221149612 177.404422992 54.135085638 263.909942908" fill="none" stroke="crimson" stroke-opacity="0.9" stroke-width="0.34" /><path d="M 150.0 83.1476894719 C 67.3729388282 117.372938828 37.0221149612 177.404422992 54.135085638 263.909942908" fill="none" stroke="crimson" stroke-opacity="0.9" stroke-width="0.34" /><path d="M 150.0 109.577628196 C 86.0617277262 136.061727726 104.648178534 190.929635707 111.517703403 225.654864398" fill="none" stroke="red" stroke-opacity="0.4" stroke-width="0.34" /><path d="M 150.0 109.577628196 C 86.0617277262 136.061727726 121.99388493 194.398776986 126.236023343 215.842651104" fill="none" stroke="red" stroke-opacity="0.4" stroke-width="0.34" /><path d="M 150.0 109.577628196 C 213.938272274 136.061727726 172.920493904 195.415901219 169.448684001 212.965789334" fill="none" stroke="purple" stroke-opacity="0.4" stroke-width="0.34" /><path d="M 150.0 109.577628196 C 213.938272274 136.061727726 325.610007806 164.877998439 299.010032837 299.340021891" fill="none" stroke="purple" stroke-opacity="0.4" stroke-width="0.34" /><path d="M 150.0 109.577628196 C 86.0617277262 136.061727726 27.3673146189 175.473462924 45.9427158863 269.371522742" fill="none" stroke="red" stroke-opacity="0.4" stroke-width="0.34" /><path d="M 150.0 109.577628196 C 213.938272274 136.061727726 273.506541812 175.298691638 254.798775884 269.865850589" fill="none" stroke="purple" stroke-opacity="0.4" stroke-width="0.34" /><path d="M 150.0 109.577628196 C 86.0617277262 136.061727726 61.4825901293 182.296518026 74.8904870729 250.073008618" fill="none" stroke="red" stroke-opacity="0.4" stroke-width="0.34" /><path d="M 150.0 109.577628196 C 86.0617277262 136.061727726 144.334360753 198.866872151 145.192545682 203.204969545" fill="none" stroke="red" stroke-opacity="0.4" stroke-width="0.34" /><path d="M 150.0 109.577628196 C 213.938272274 136.061727726 299.409520548 170.11809589 276.778182184 284.518788123" fill="none" stroke="purple" stroke-opacity="0.4" stroke-width="0.34" /><path d="M 150.0 109.577628196 C 86.0617277262 136.061727726 91.7126567926 188.342531359 100.541549233 232.972300511" fill="none" stroke="red" stroke-opacity="0.4" stroke-width="0.34" /><path d="M 150.0 109.577628196 C 213.938272274 136.061727726 284.377884362 173.124423128 264.023415929 276.015610619" fill="none" stroke="purple" stroke-opacity="0.4" stroke-width="0.34" /><path d="M 150.0 109.577628196 C 213.938272274 136.061727726 228.558728284 184.288254343 216.659291389 244.439527593" fill="none" stroke="purple" stroke-opacity="0.4" stroke-width="0.34" /><path d="M 150.0 109.577628196 C 213.938272274 136.061727726 173.824252096 195.235149581 170.215548257 213.477032171" fill="none" stroke="purple" stroke-opacity="0.4" stroke-width="0.34" /><path d="M 150.0 109.577628196 C 86.0617277262 136.061727726 29.4674615699 175.893492314 47.7247496669 268.183500222" fill="none" stroke="red" stroke-opacity="0.4" stroke-width="0.34" /><path d="M 150.0 194.271346255 C 154.05076991 195.94923009 192.418825582 191.516234884 185.993567063 223.995711375" fill="none" stroke="purple" stroke-opacity="0.4" stroke-width="0.34" /><path d="M 150.0 194.271346255 C 145.94923009 195.94923009 6.2896766521 171.25793533 28.057747001 281.294835333" fill="none" stroke="red" stroke-opacity="0.4" stroke-width="0.34" /><path d="M 150.0 194.271346255 C 154.05076991 195.94923009 152.520647598 199.49587048 152.138840412 201.425893608" fill="none" stroke="purple" stroke-opacity="0.4" stroke-width="0.34" /><path d="M 150.0 194.271346255 C 145.94923009 195.94923009 90.8235446274 188.164708925 99.7871125433 233.475258304" fill="none" stroke="red" stroke-opacity="0.4" stroke-width="0.34" /><path d="M 150.0 194.271346255 C 154.05076991 195.94923009 298.909074384 170.218185123 276.353539532 284.235693021" fill="none" stroke="purple" stroke-opacity="0.4" stroke-width="0.34" /><path d="M 150.0 194.271346255 C 154.05076991 195.94923009 273.506541812 175.298691638 254.798775884 269.865850589" fill="none" stroke="purple" stroke-opacity="0.4" stroke-width="0.34" /><path d="M 150.0 194.271346255 C 145.94923009 195.94923009 91.7126567926 188.342531359 100.541549233 232.972300511" fill="none" stroke="red" stroke-opacity="0.4" stroke-width="0.34" /><path d="M 150.0 194.271346255 C 145.94923009 195.94923009 76.3093040274 185.261860805 87.4713710009 241.685752666" fill="none" stroke="red" stroke-opacity="0.4" stroke-width="0.34" /><path d="M 150.0 194.271346255 C 154.05076991 195.94923009 281.862570035 173.627485993 261.889100948 274.592733965" fill="none" stroke="purple" stroke-opacity="0.4" stroke-width="0.34" /><path d="M 150.0 31.5727813667 C 269.096028432 80.903971568 192.418825582 191.516234884 185.993567063 223.995711375" fill="none" stroke="purple" stroke-opacity="0.4" stroke-width="0.34" /><path d="M 150.0 83.1476894719 C 232.627061172 117.372938828 192.418825582 191.516234884 185.993567063 223.995711375" fill="none" stroke="purple" stroke-opacity="0.4" stroke-width="0.34" /><path d="M 185.993567063 223.995711375 C 178.556568902 232.493897995 131.146141043 221.453395605 126.236023343 215.842651104" fill="none" stroke="magenta" stroke-opacity="0.4" stroke-width="0.34" /><path d="M 150.0 101.310654005 C 219.783905784 130.216094216 192.418825582 191.516234884 185.993567063 223.995711375" fill="none" stroke="purple" stroke-opacity="0.4" stroke-width="0.34" /><path d="M 185.993567063 223.995711375 C 178.556568902 232.493897995 53.253480165 310.085758471 28.057747001 281.294835333" fill="none" stroke="purple" stroke-opacity="0.4" stroke-width="0.34" /><path d="M 150.0 32.3752323088 C 268.528609929 81.4713900708 192.418825582 191.516234884 185.993567063 223.995711375" fill="none" stroke="purple" stroke-opacity="0.4" stroke-width="0.34" /><path d="M 150.0 151.509559083 C 184.287919595 165.712080405 192.418825582 191.516234884 185.993567063 223.995711375" fill="none" stroke="purple" stroke-opacity="0.4" stroke-width="0.34" /><path d="M 150.0 68.5749343896 C 242.931555111 107.068444889 192.418825582 191.516234884 185.993567063 223.995711375" fill="none" stroke="purple" stroke-opacity="0.4" stroke-width="0.34" /><path d="M 223.309525392 248.873016928 C 208.162296317 266.181610618 71.5721618583 289.241329422 51.1471699742 265.901886684" fill="none" stroke="red" stroke-opacity="0.4" stroke-width="0.34" /><path d="M 169.448684001 212.965789334 C 165.43019295 217.557680598 71.5721618583 289.241329422 51.1471699742 265.901886684" fill="none" stroke="blue" stroke-opacity="0.4" stroke-width="0.34" /><path d="M 150.0 72.1964799526 C 59.629264315 109.629264315 33.5008225821 176.700164516 51.1471699742 265.901886684" fill="none" stroke="crimson" stroke-opacity="0.9" stroke-width="0.34" /><path d="M 150.0 166.247019637 C 126.1330387 176.1330387 33.5008225821 176.700164516 51.1471699742 265.901886684" fill="none" stroke="crimson" stroke-opacity="0.9" stroke-width="0.34" /><path d="M 150.0 31.5727813667 C 30.903971568 80.903971568 33.5008225821 176.700164516 51.1471699742 265.901886684" fill="none" stroke="crimson" stroke-opacity="0.9" stroke-width="0.34" /><path d="M 225.284615648 250.189743765 C 209.729293021 267.964662051 71.5721618583 289.241329422 51.1471699742 265.901886684" fill="none" stroke="red" stroke-opacity="0.4" stroke-width="0.34" /><path d="M 264.023415929 276.015610619 C 240.463874494 302.936873128 71.5721618583 289.241329422 51.1471699742 265.901886684" fill="none" stroke="red" stroke-opacity="0.4" stroke-width="0.34" /><path d="M 170.215548257 213.477032171 C 166.038607556 218.249982332 71.5721618583 289.241329422 51.1471699742 265.901886684" fill="none" stroke="blue" stroke-opacity="0.4" stroke-width="0.34" /><path d="M 261.889100948 274.592733965 C 238.770552109 301.010078455 71.5721618583 289.241329422 51.1471699742 265.901886684" fill="none" stroke="green" stroke-opacity="0.4" stroke-width="0.34" /><path d="M 150.0 115.449416801 C 90.2137092668 140.213709267 33.5008225821 176.700164516 51.1471699742 265.901886684" fill="none" stroke="crimson" stroke-opacity="0.9" stroke-width="0.34" /><path d="M 276.353539532 284.235693021 C 250.246345446 314.068133832 53.253480165 310.085758471 28.057747001 281.294835333" fill="none" stroke="green" stroke-opacity="0.4" stroke-width="0.34" /><path d="M 216.659291389 244.439527593 C 202.886135018 260.177981554 53.253480165 310.085758471 28.057747001 281.294835333" fill="none" stroke="blue" stroke-opacity="0.4" stroke-width="0.34" /><path d="M 207.124832751 238.083221834 C 195.321688167 251.570562182 53.253480165 310.085758471 28.057747001 281.294835333" fill="none" stroke="green" stroke-opacity="0.4" stroke-width="0.34" /><path d="M 216.701865735 244.46791049 C 202.919912644 260.216416379 53.253480165 310.085758471 28.057747001 281.294835333" fill="none" stroke="magenta" stroke-opacity="0.4" stroke-width="0.34" /><path d="M 203.994137568 235.996091712 C 192.837857861 248.744265756 53.253480165 310.085758471 28.057747001 281.294835333" fill="none" stroke="blue" stroke-opacity="0.4" stroke-width="0.34" /><path d="M 150.0 32.3752323088 C 268.528609929 81.4713900708 200.961197944 189.807760411 193.242010372 228.828006915" fill="none" stroke="purple" stroke-opacity="0.4" stroke-width="0.34" /><path d="M 150.0 32.3752323088 C 31.4713900708 81.4713900708 106.054901006 191.210980201 112.711347002 224.859101999" fill="none" stroke="red" stroke-opacity="0.4" stroke-width="0.34" /><path d="M 150.0 32.3752323088 C 268.528609929 81.4713900708 298.909074384 170.218185123 276.353539532 284.235693021" fill="none" stroke="purple" stroke-opacity="0.4" stroke-width="0.34" /><path d="M 150.0 32.3752323088 C 268.528609929 81.4713900708 239.093599235 182.181280153 225.598425815 250.398950543" fill="none" stroke="purple" stroke-opacity="0.4" stroke-width="0.34" /><path d="M 150.0 32.3752323088 C 31.4713900708 81.4713900708 91.7126567926 188.342531359 100.541549233 232.972300511" fill="none" stroke="red" stroke-opacity="0.4" stroke-width="0.34" /><path d="M 150.0 32.3752323088 C 268.528609929 81.4713900708 152.520647598 199.49587048 152.138840412 201.425893608" fill="none" stroke="purple" stroke-opacity="0.4" stroke-width="0.34" /><path d="M 150.0 32.3752323088 C 268.528609929 81.4713900708 318.383902525 166.323219495 292.878479182 295.252319455" fill="none" stroke="purple" stroke-opacity="0.4" stroke-width="0.34" /><path d="M 150.0 32.3752323088 C 268.528609929 81.4713900708 213.632701364 187.273459727 203.994137568 235.996091712" fill="none" stroke="purple" stroke-opacity="0.4" stroke-width="0.34" /><path d="M 150.0 72.1964799526 C 240.370735685 109.629264315 152.520647598 199.49587048 152.138840412 201.425893608" fill="none" stroke="purple" stroke-opacity="0.4" stroke-width="0.34" /><path d="M 152.138840412 201.425893608 C 151.69691277 201.930880094 100.391049067 256.448945138 87.4713710009 241.685752666" fill="none" stroke="magenta" stroke-opacity="0.4" stroke-width="0.34" /><path d="M 150.0 166.247019637 C 173.8669613 176.1330387 152.520647598 199.49587048 152.138840412 201.425893608" fill="none" stroke="purple" stroke-opacity="0.4" stroke-width="0.34" /><path d="M 150.0 31.5727813667 C 269.096028432 80.903971568 152.520647598 199.49587048 152.138840412 201.425893608" fill="none" stroke="purple" stroke-opacity="0.4" stroke-width="0.34" /><path d="M 150.0 151.509559083 C 184.287919595 165.712080405 152.520647598 199.49587048 152.138840412 201.425893608" fill="none" stroke="purple" stroke-opacity="0.4" stroke-width="0.34" /><path d="M 150.0 94.7565754431 C 224.418339179 125.581660821 152.520647598 199.49587048 152.138840412 201.425893608" fill="none" stroke="purple" stroke-opacity="0.4" stroke-width="0.34" /><path d="M 150.0 72.1964799526 C 240.370735685 109.629264315 228.558728284 184.288254343 216.659291389 244.439527593" fill="none" stroke="purple" stroke-opacity="0.4" stroke-width="0.34" /><path d="M 150.0 115.449416801 C 209.786290733 140.213709267 228.558728284 184.288254343 216.659291389 244.439527593" fill="none" stroke="purple" stroke-opacity="0.4" stroke-width="0.34" /><path d="M 150.0 166.247019637 C 173.8669613 176.1330387 228.558728284 184.288254343 216.659291389 244.439527593" fill="none" stroke="purple" stroke-opacity="0.4" stroke-width="0.34" /><path d="M 216.659291389 244.439527593 C 202.886135018 260.177981554 90.4096299396 267.806584638 74.8904870729 250.073008618" fill="none" stroke="magenta" stroke-opacity="0.4" stroke-width="0.34" /><path d="M 216.659291389 244.439527593 C 202.886135018 260.177981554 82.2502090737 277.091011987 64.60610511 256.92926326" fill="none" stroke="blue" stroke-opacity="0.4" stroke-width="0.34" /><path d="M 150.0 28.1009428818 C 271.550988968 78.4490110322 228.558728284 184.288254343 216.659291389 244.439527593" fill="none" stroke="purple" stroke-opacity="0.4" stroke-width="0.34" /><path d="M 150.0 94.7565754431 C 224.418339179 125.581660821 173.824252096 195.235149581 170.215548257 213.477032171" fill="none" stroke="purple" stroke-opacity="0.4" stroke-width="0.34" /><path d="M 150.0 94.7565754431 C 75.5816608205 125.581660821 29.4674615699 175.893492314 47.7247496669 268.183500222" fill="none" stroke="red" stroke-opacity="0.4" stroke-width="0.34" /><path d="M 150.0 94.7565754431 C 224.418339179 125.581660821 213.632701364 187.273459727 203.994137568 235.996091712" fill="none" stroke="purple" stroke-opacity="0.4" stroke-width="0.34" /><path d="M 150.0 94.7565754431 C 75.5816608205 125.581660821 104.648178534 190.929635707 111.517703403 225.654864398" fill="none" stroke="red" stroke-opacity="0.4" stroke-width="0.34" /><path d="M 150.0 94.7565754431 C 224.418339179 125.581660821 238.723770406 182.255245919 225.284615648 250.189743765" fill="none" stroke="purple" stroke-opacity="0.4" stroke-width="0.34" /><path d="M 150.0 94.7565754431 C 224.418339179 125.581660821 299.409520548 170.11809589 276.778182184 284.518788123" fill="none" stroke="purple" stroke-opacity="0.4" stroke-width="0.34" /><path d="M 150.0 94.7565754431 C 75.5816608205 125.581660821 76.3093040274 185.261860805 87.4713710009 241.685752666" fill="none" stroke="red" stroke-opacity="0.4" stroke-width="0.34" /><path d="M 150.0 94.7565754431 C 224.418339179 125.581660821 284.377884362 173.124423128 264.023415929 276.015610619" fill="none" stroke="purple" stroke-opacity="0.4" stroke-width="0.34" /><path d="M 150.0 94.7565754431 C 224.418339179 125.581660821 167.776609 196.4446782 165.083952925 210.055968617" fill="none" stroke="purple" stroke-opacity="0.4" stroke-width="0.34" /><path d="M 150.0 94.7565754431 C 224.418339179 125.581660821 236.396104217 182.720779157 223.309525392 248.873016928" fill="none" stroke="purple" stroke-opacity="0.4" stroke-width="0.34" /><path d="M 170.215548257 213.477032171 C 166.038607556 218.249982332 102.380236358 254.185492229 89.9786030997 240.0142646" fill="none" stroke="magenta" stroke-opacity="0.4" stroke-width="0.34" /><path d="M 170.215548257 213.477032171 C 166.038607556 218.249982332 120.415936083 233.663062201 112.711347002 224.859101999" fill="none" stroke="red" stroke-opacity="0.4" stroke-width="0.34" /><path d="M 150.0 41.6077738657 C 262.000217187 87.9997828132 173.824252096 195.235149581 170.215548257 213.477032171" fill="none" stroke="purple" stroke-opacity="0.4" stroke-width="0.34" /><path d="M 170.215548257 213.477032171 C 166.038607556 218.249982332 82.2502090737 277.091011987 64.60610511 256.92926326" fill="none" stroke="purple" stroke-opacity="0.4" stroke-width="0.34" /><path d="M 170.215548257 213.477032171 C 166.038607556 218.249982332 67.4430531346 293.939752336 45.9427158863 269.371522742" fill="none" stroke="blue" stroke-opacity="0.4" stroke-width="0.34" /><path d="M 170.215548257 213.477032171 C 166.038607556 218.249982332 131.146141043 221.453395605 126.236023343 215.842651104" fill="none" stroke="green" stroke-opacity="0.4" stroke-width="0.34" /><path d="M 292.878479182 295.252319455 C 263.356898698 328.986346923 102.380236358 254.185492229 89.9786030997 240.0142646" fill="none" stroke="purple" stroke-opacity="0.4" stroke-width="0.34" /><path d="M 292.878479182 295.252319455 C 263.356898698 328.986346923 146.185862873 204.340023592 145.192545682 203.204969545" fill="none" stroke="red" stroke-opacity="0.4" stroke-width="0.34" /><path d="M 150.0 31.5727813667 C 269.096028432 80.903971568 318.383902525 166.323219495 292.878479182 295.252319455" fill="none" stroke="purple" stroke-opacity="0.4" stroke-width="0.34" /><path d="M 292.878479182 295.252319455 C 263.356898698 328.986346923 110.760664409 244.649585616 100.541549233 232.972300511" fill="none" stroke="green" stroke-opacity="0.4" stroke-width="0.34" /><path d="M 292.878479182 295.252319455 C 263.356898698 328.986346923 56.1126209901 306.832404377 31.6614949648 278.89233669" fill="none" stroke="blue" stroke-opacity="0.4" stroke-width="0.34" /><path d="M 150.0 72.1964799526 C 240.370735685 109.629264315 319.610767221 166.077846556 293.919508397 295.946338931" fill="none" stroke="purple" stroke-opacity="0.4" stroke-width="0.34" /><path d="M 293.919508397 295.946338931 C 264.182830244 329.926156446 119.468923368 234.740647351 111.517703403 225.654864398" fill="none" stroke="magenta" stroke-opacity="0.4" stroke-width="0.34" /><path d="M 150.0 166.247019637 C 173.8669613 176.1330387 319.610767221 166.077846556 293.919508397 295.946338931" fill="none" stroke="purple" stroke-opacity="0.4" stroke-width="0.34" /><path d="M 150.0 28.1009428818 C 271.550988968 78.4490110322 319.610767221 166.077846556 293.919508397 295.946338931" fill="none" stroke="purple" stroke-opacity="0.4" stroke-width="0.34" /><path d="M 223.309525392 248.873016928 C 208.162296317 266.181610618 68.8568827323 292.33098642 47.7247496669 268.183500222" fill="none" stroke="green" stroke-opacity="0.4" stroke-width="0.34" /><path d="M 254.798775884 269.865850589 C 233.145231455 294.609148562 68.8568827323 292.33098642 47.7247496669 268.183500222" fill="none" stroke="blue" stroke-opacity="0.4" stroke-width="0.34" /><path d="M 165.083952925 210.055968617 C 161.967303498 213.617334087 68.8568827323 292.33098642 47.7247496669 268.183500222" fill="none" stroke="green" stroke-opacity="0.4" stroke-width="0.34" /><path d="M 169.448684001 212.965789334 C 165.43019295 217.557680598 68.8568827323 292.33098642 47.7247496669 268.183500222" fill="none" stroke="green" stroke-opacity="0.4" stroke-width="0.34" /><path d="M 264.023415929 276.015610619 C 240.463874494 302.936873128 68.8568827323 292.33098642 47.7247496669 268.183500222" fill="none" stroke="purple" stroke-opacity="0.4" stroke-width="0.34" /><path d="M 150.0 41.6077738657 C 37.9997828132 87.9997828132 29.4674615699 175.893492314 47.7247496669 268.183500222" fill="none" stroke="crimson" stroke-opacity="0.9" stroke-width="0.34" /><path d="M 150.0 68.5749343896 C 57.068444889 107.068444889 29.4674615699 175.893492314 47.7247496669 268.183500222" fill="none" stroke="crimson" stroke-opacity="0.9" stroke-width="0.34" /><path d="M 150.0 72.1964799526 C 59.629264315 109.629264315 10.5367343568 172.107346871 31.6614949648 278.89233669" fill="none" stroke="crimson" stroke-opacity="0.9" stroke-width="0.34" /><path d="M 169.448684001 212.965789334 C 165.43019295 217.557680598 56.1126209901 306.832404377 31.6614949648 278.89233669" fill="none" stroke="red" stroke-opacity="0.4" stroke-width="0.34" /><path d="M 150.0 101.310654005 C 80.2160942159 130.216094216 10.5367343568 172.107346871 31.6614949648 278.89233669" fill="none" stroke="crimson" stroke-opacity="0.9" stroke-width="0.34" /><path d="M 150.0 166.247019637 C 126.1330387 176.1330387 10.5367343568 172.107346871 31.6614949648 278.89233669" fill="none" stroke="crimson" stroke-opacity="0.9" stroke-width="0.34" /><path d="M 172.438740586 214.959160391 C 167.802443434 220.257012773 56.1126209901 306.832404377 31.6614949648 278.89233669" fill="none" stroke="red" stroke-opacity="0.4" stroke-width="0.34" /><path d="M 150.0 31.5727813667 C 30.903971568 80.903971568 10.5367343568 172.107346871 31.6614949648 278.89233669" fill="none" stroke="crimson" stroke-opacity="0.9" stroke-width="0.34" /><path d="M 276.353539532 284.235693021 C 250.246345446 314.068133832 56.1126209901 306.832404377 31.6614949648 278.89233669" fill="none" stroke="green" stroke-opacity="0.4" stroke-width="0.34" /><path d="M 193.242010372 228.828006915 C 184.307337377 239.037572232 56.1126209901 306.832404377 31.6614949648 278.89233669" fill="none" stroke="green" stroke-opacity="0.4" stroke-width="0.34" /><path d="M 150.0 68.5749343896 C 57.068444889 107.068444889 10.5367343568 172.107346871 31.6614949648 278.89233669" fill="none" stroke="crimson" stroke-opacity="0.9" stroke-width="0.34" /><path d="M 284.465857818 289.643905212 C 256.682494874 321.391688133 56.1126209901 306.832404377 31.6614949648 278.89233669" fill="none" stroke="red" stroke-opacity="0.4" stroke-width="0.34" /><path d="M 150.0 115.449416801 C 90.2137092668 140.213709267 10.5367343568 172.107346871 31.6614949648 278.89233669" fill="none" stroke="crimson" stroke-opacity="0.9" stroke-width="0.34" /><path d="M 203.994137568 235.996091712 C 192.837857861 248.744265756 120.415936083 233.663062201 112.711347002 224.859101999" fill="none" stroke="purple" stroke-opacity="0.4" stroke-width="0.34" /><path d="M 150.0 101.310654005 C 219.783905784 130.216094216 213.632701364 187.273459727 203.994137568 235.996091712" fill="none" stroke="purple" stroke-opacity="0.4" stroke-width="0.34" /><path d="M 150.0 31.5727813667 C 269.096028432 80.903971568 213.632701364 187.273459727 203.994137568 235.996091712" fill="none" stroke="purple" stroke-opacity="0.4" stroke-width="0.34" /><path d="M 203.994137568 235.996091712 C 192.837857861 248.744265756 67.4430531346 293.939752336 45.9427158863 269.371522742" fill="none" stroke="green" stroke-opacity="0.4" stroke-width="0.34" /><path d="M 150.0 115.449416801 C 209.786290733 140.213709267 213.632701364 187.273459727 203.994137568 235.996091712" fill="none" stroke="purple" stroke-opacity="0.4" stroke-width="0.34" /><path d="M 172.438740586 214.959160391 C 167.802443434 220.257012773 102.380236358 254.185492229 89.9786030997 240.0142646" fill="none" stroke="magenta" stroke-opacity="0.4" stroke-width="0.34" /><path d="M 169.448684001 212.965789334 C 165.43019295 217.557680598 102.380236358 254.185492229 89.9786030997 240.0142646" fill="none" stroke="green" stroke-opacity="0.4" stroke-width="0.34" /><path d="M 299.010032837 299.340021891 C 268.221549487 334.521727138 102.380236358 254.185492229 89.9786030997 240.0142646" fill="none" stroke="red" stroke-opacity="0.4" stroke-width="0.34" /><path d="M 276.778182184 284.518788123 C 250.583248346 314.451488307 102.380236358 254.185492229 89.9786030997 240.0142646" fill="none" stroke="purple" stroke-opacity="0.4" stroke-width="0.34" /><path d="M 165.083952925 210.055968617 C 161.967303498 213.617334087 102.380236358 254.185492229 89.9786030997 240.0142646" fill="none" stroke="purple" stroke-opacity="0.4" stroke-width="0.34" /><path d="M 150.0 28.1009428818 C 28.4490110322 78.4490110322 79.2641053925 185.852821079 89.9786030997 240.0142646" fill="none" stroke="crimson" stroke-opacity="0.9" stroke-width="0.34" /><path d="M 150.0 21.9349898374 C 24.0890238219 74.0890238219 79.2641053925 185.852821079 89.9786030997 240.0142646" fill="none" stroke="crimson" stroke-opacity="0.9" stroke-width="0.34" /><path d="M 207.124832751 238.083221834 C 195.321688167 251.570562182 102.380236358 254.185492229 89.9786030997 240.0142646" fill="none" stroke="blue" stroke-opacity="0.4" stroke-width="0.34" /><path d="M 169.448684001 212.965789334 C 165.43019295 217.557680598 119.468923368 234.740647351 111.517703403 225.654864398" fill="none" stroke="blue" stroke-opacity="0.4" stroke-width="0.34" /><path d="M 150.0 101.310654005 C 80.2160942159 130.216094216 104.648178534 190.929635707 111.517703403 225.654864398" fill="none" stroke="crimson" stroke-opacity="0.9" stroke-width="0.34" /><path d="M 276.353539532 284.235693021 C 250.246345446 314.068133832 119.468923368 234.740647351 111.517703403 225.654864398" fill="none" stroke="blue" stroke-opacity="0.4" stroke-width="0.34" /><path d="M 276.778182184 284.518788123 C 250.583248346 314.451488307 119.468923368 234.740647351 111.517703403 225.654864398" fill="none" stroke="purple" stroke-opacity="0.4" stroke-width="0.34" /><path d="M 150.0 151.509559083 C 115.712080405 165.712080405 104.648178534 190.929635707 111.517703403 225.654864398" fill="none" stroke="crimson" stroke-opacity="0.9" stroke-width="0.34" /><path d="M 261.889100948 274.592733965 C 238.770552109 301.010078455 119.468923368 234.740647351 111.517703403 225.654864398" fill="none" stroke="magenta" stroke-opacity="0.4" stroke-width="0.34" /><path d="M 150.0 115.449416801 C 90.2137092668 140.213709267 104.648178534 190.929635707 111.517703403 225.654864398" fill="none" stroke="crimson" stroke-opacity="0.9" stroke-width="0.34" /><path d="M 225.284615648 250.189743765 C 209.729293021 267.964662051 146.185862873 204.340023592 145.192545682 203.204969545" fill="none" stroke="red" stroke-opacity="0.4" stroke-width="0.34" /><path d="M 299.010032837 299.340021891 C 268.221549487 334.521727138 146.185862873 204.340023592 145.192545682 203.204969545" fill="none" stroke="purple" stroke-opacity="0.4" stroke-width="0.34" /><path d="M 150.0 166.247019637 C 126.1330387 176.1330387 144.334360753 198.866872151 145.192545682 203.204969545" fill="none" stroke="crimson" stroke-opacity="0.9" stroke-width="0.34" /><path d="M 254.798775884 269.865850589 C 233.145231455 294.609148562 146.185862873 204.340023592 145.192545682 203.204969545" fill="none" stroke="purple" stroke-opacity="0.4" stroke-width="0.34" /><path d="M 150.0 31.5727813667 C 30.903971568 80.903971568 144.334360753 198.866872151 145.192545682 203.204969545" fill="none" stroke="crimson" stroke-opacity="0.9" stroke-width="0.34" /><path d="M 150.0 41.6077738657 C 37.9997828132 87.9997828132 144.334360753 198.866872151 145.192545682 203.204969545" fill="none" stroke="crimson" stroke-opacity="0.9" stroke-width="0.34" /><path d="M 193.242010372 228.828006915 C 184.307337377 239.037572232 146.185862873 204.340023592 145.192545682 203.204969545" fill="none" stroke="purple" stroke-opacity="0.4" stroke-width="0.34" /><path d="M 172.438740586 214.959160391 C 167.802443434 220.257012773 146.185862873 204.340023592 145.192545682 203.204969545" fill="none" stroke="blue" stroke-opacity="0.4" stroke-width="0.34" /><path d="M 284.465857818 289.643905212 C 256.682494874 321.391688133 146.185862873 204.340023592 145.192545682 203.204969545" fill="none" stroke="purple" stroke-opacity="0.4" stroke-width="0.34" /><path d="M 225.598425815 250.398950543 C 209.978263668 268.247960329 146.185862873 204.340023592 145.192545682 203.204969545" fill="none" stroke="blue" stroke-opacity="0.4" stroke-width="0.34" /><path d="M 150.0 115.449416801 C 90.2137092668 140.213709267 144.334360753 198.866872151 145.192545682 203.204969545" fill="none" stroke="crimson" stroke-opacity="0.9" stroke-width="0.34" /><path d="M 223.309525392 248.873016928 C 208.162296317 266.181610618 146.185862873 204.340023592 145.192545682 203.204969545" fill="none" stroke="red" stroke-opacity="0.4" stroke-width="0.34" /><path d="M 150.0 83.1476894719 C 232.627061172 117.372938828 238.723770406 182.255245919 225.284615648 250.189743765" fill="none" stroke="purple" stroke-opacity="0.4" stroke-width="0.34" /><path d="M 225.284615648 250.189743765 C 209.729293021 267.964662051 67.4430531346 293.939752336 45.9427158863 269.371522742" fill="none" stroke="green" stroke-opacity="0.4" stroke-width="0.34" /><path d="M 150.0 68.5749343896 C 242.931555111 107.068444889 238.723770406 182.255245919 225.284615648 250.189743765" fill="none" stroke="purple" stroke-opacity="0.4" stroke-width="0.34" /><path d="M 169.448684001 212.965789334 C 165.43019295 217.557680598 120.415936083 233.663062201 112.711347002 224.859101999" fill="none" stroke="red" stroke-opacity="0.4" stroke-width="0.34" /><path d="M 150.0 21.9349898374 C 24.0890238219 74.0890238219 106.054901006 191.210980201 112.711347002 224.859101999" fill="none" stroke="crimson" stroke-opacity="0.9" stroke-width="0.34" /><path d="M 207.124832751 238.083221834 C 195.321688167 251.570562182 120.415936083 233.663062201 112.711347002 224.859101999" fill="none" stroke="purple" stroke-opacity="0.4" stroke-width="0.34" /><path d="M 225.598425815 250.398950543 C 209.978263668 268.247960329 120.415936083 233.663062201 112.711347002 224.859101999" fill="none" stroke="blue" stroke-opacity="0.4" stroke-width="0.34" /><path d="M 165.083952925 210.055968617 C 161.967303498 213.617334087 120.415936083 233.663062201 112.711347002 224.859101999" fill="none" stroke="magenta" stroke-opacity="0.4" stroke-width="0.34" /><path d="M 150.0 166.247019637 C 173.8669613 176.1330387 228.608902631 184.278219474 216.701865735 244.46791049" fill="none" stroke="purple" stroke-opacity="0.4" stroke-width="0.34" /><path d="M 216.701865735 244.46791049 C 202.919912644 260.216416379 90.4096299396 267.806584638 74.8904870729 250.073008618" fill="none" stroke="blue" stroke-opacity="0.4" stroke-width="0.34" /><path d="M 150.0 41.6077738657 C 262.000217187 87.9997828132 228.608902631 184.278219474 216.701865735 244.46791049" fill="none" stroke="purple" stroke-opacity="0.4" stroke-width="0.34" /><path d="M 150.0 28.1009428818 C 271.550988968 78.4490110322 228.608902631 184.278219474 216.701865735 244.46791049" fill="none" stroke="purple" stroke-opacity="0.4" stroke-width="0.34" /><path d="M 216.701865735 244.46791049 C 202.919912644 260.216416379 67.4430531346 293.939752336 45.9427158863 269.371522742" fill="none" stroke="blue" stroke-opacity="0.4" stroke-width="0.34" /><path d="M 150.0 21.9349898374 C 275.910976178 74.0890238219 228.608902631 184.278219474 216.701865735 244.46791049" fill="none" stroke="purple" stroke-opacity="0.4" stroke-width="0.34" /><path d="M 150.0 101.310654005 C 219.783905784 130.216094216 172.920493904 195.415901219 169.448684001 212.965789334" fill="none" stroke="purple" stroke-opacity="0.4" stroke-width="0.34" /><path d="M 169.448684001 212.965789334 C 165.43019295 217.557680598 90.4096299396 267.806584638 74.8904870729 250.073008618" fill="none" stroke="magenta" stroke-opacity="0.4" stroke-width="0.34" /><path d="M 150.0 28.1009428818 C 271.550988968 78.4490110322 172.920493904 195.415901219 169.448684001 212.965789334" fill="none" stroke="purple" stroke-opacity="0.4" stroke-width="0.34" /><path d="M 169.448684001 212.965789334 C 165.43019295 217.557680598 110.760664409 244.649585616 100.541549233 232.972300511" fill="none" stroke="purple" stroke-opacity="0.4" stroke-width="0.34" /><path d="M 169.448684001 212.965789334 C 165.43019295 217.557680598 100.391049067 256.448945138 87.4713710009 241.685752666" fill="none" stroke="green" stroke-opacity="0.4" stroke-width="0.34" /><path d="M 169.448684001 212.965789334 C 165.43019295 217.557680598 67.4430531346 293.939752336 45.9427158863 269.371522742" fill="none" stroke="magenta" stroke-opacity="0.4" stroke-width="0.34" /><path d="M 150.0 166.247019637 C 173.8669613 176.1330387 325.610007806 164.877998439 299.010032837 299.340021891" fill="none" stroke="purple" stroke-opacity="0.4" stroke-width="0.34" /><path d="M 299.010032837 299.340021891 C 268.221549487 334.521727138 110.760664409 244.649585616 100.541549233 232.972300511" fill="none" stroke="blue" stroke-opacity="0.4" stroke-width="0.34" /><path d="M 150.0 21.9349898374 C 275.910976178 74.0890238219 325.610007806 164.877998439 299.010032837 299.340021891" fill="none" stroke="purple" stroke-opacity="0.4" stroke-width="0.34" /><path d="M 299.010032837 299.340021891 C 268.221549487 334.521727138 110.162109582 245.330668121 99.7871125433 233.475258304" fill="none" stroke="blue" stroke-opacity="0.4" stroke-width="0.34" /><path d="M 150.0 101.310654005 C 80.2160942159 130.216094216 90.8235446274 188.164708925 99.7871125433 233.475258304" fill="none" stroke="red" stroke-opacity="0.4" stroke-width="0.34" /><path d="M 150.0 101.310654005 C 219.783905784 130.216094216 200.961197944 189.807760411 193.242010372 228.828006915" fill="none" stroke="purple" stroke-opacity="0.4" stroke-width="0.34" /><path d="M 150.0 101.310654005 C 80.2160942159 130.216094216 91.7126567926 188.342531359 100.541549233 232.972300511" fill="none" stroke="red" stroke-opacity="0.4" stroke-width="0.34" /><path d="M 150.0 101.310654005 C 80.2160942159 130.216094216 76.3093040274 185.261860805 87.4713710009 241.685752666" fill="none" stroke="red" stroke-opacity="0.4" stroke-width="0.34" /><path d="M 150.0 101.310654005 C 80.2160942159 130.216094216 27.3673146189 175.473462924 45.9427158863 269.371522742" fill="none" stroke="red" stroke-opacity="0.4" stroke-width="0.34" /><path d="M 150.0 101.310654005 C 219.783905784 130.216094216 239.093599235 182.181280153 225.598425815 250.398950543" fill="none" stroke="purple" stroke-opacity="0.4" stroke-width="0.34" /><path d="M 150.0 101.310654005 C 80.2160942159 130.216094216 121.99388493 194.398776986 126.236023343 215.842651104" fill="none" stroke="red" stroke-opacity="0.4" stroke-width="0.34" /><path d="M 150.0 166.247019637 C 173.8669613 176.1330387 273.506541812 175.298691638 254.798775884 269.865850589" fill="none" stroke="purple" stroke-opacity="0.4" stroke-width="0.34" /><path d="M 150.0 166.247019637 C 173.8669613 176.1330387 299.409520548 170.11809589 276.778182184 284.518788123" fill="none" stroke="purple" stroke-opacity="0.4" stroke-width="0.34" /><path d="M 150.0 166.247019637 C 126.1330387 176.1330387 76.3093040274 185.261860805 87.4713710009 241.685752666" fill="none" stroke="red" stroke-opacity="0.4" stroke-width="0.34" /><path d="M 150.0 166.247019637 C 126.1330387 176.1330387 27.3673146189 175.473462924 45.9427158863 269.371522742" fill="none" stroke="red" stroke-opacity="0.4" stroke-width="0.34" /><path d="M 150.0 166.247019637 C 173.8669613 176.1330387 281.862570035 173.627485993 261.889100948 274.592733965" fill="none" stroke="purple" stroke-opacity="0.4" stroke-width="0.34" /><path d="M 150.0 166.247019637 C 173.8669613 176.1330387 217.32226102 186.535547796 207.124832751 238.083221834" fill="none" stroke="purple" stroke-opacity="0.4" stroke-width="0.34" /><path d="M 150.0 166.247019637 C 173.8669613 176.1330387 239.093599235 182.181280153 225.598425815 250.398950543" fill="none" stroke="purple" stroke-opacity="0.4" stroke-width="0.34" /><path d="M 165.083952925 210.055968617 C 161.967303498 213.617334087 110.162109582 245.330668121 99.7871125433 233.475258304" fill="none" stroke="red" stroke-opacity="0.4" stroke-width="0.34" /><path d="M 261.889100948 274.592733965 C 238.770552109 301.010078455 110.162109582 245.330668121 99.7871125433 233.475258304" fill="none" stroke="purple" stroke-opacity="0.4" stroke-width="0.34" /><path d="M 172.438740586 214.959160391 C 167.802443434 220.257012773 110.162109582 245.330668121 99.7871125433 233.475258304" fill="none" stroke="purple" stroke-opacity="0.4" stroke-width="0.34" /><path d="M 150.0 68.5749343896 C 57.068444889 107.068444889 90.8235446274 188.164708925 99.7871125433 233.475258304" fill="none" stroke="crimson" stroke-opacity="0.9" stroke-width="0.34" /><path d="M 284.465857818 289.643905212 C 256.682494874 321.391688133 110.162109582 245.330668121 99.7871125433 233.475258304" fill="none" stroke="magenta" stroke-opacity="0.4" stroke-width="0.34" /><path d="M 150.0 21.9349898374 C 275.910976178 74.0890238219 298.909074384 170.218185123 276.353539532 284.235693021" fill="none" stroke="purple" stroke-opacity="0.4" stroke-width="0.34" /><path d="M 150.0 41.6077738657 C 262.000217187 87.9997828132 298.909074384 170.218185123 276.353539532 284.235693021" fill="none" stroke="purple" stroke-opacity="0.4" stroke-width="0.34" /><path d="M 276.353539532 284.235693021 C 250.246345446 314.068133832 110.760664409 244.649585616 100.541549233 232.972300511" fill="none" stroke="green" stroke-opacity="0.4" stroke-width="0.34" /><path d="M 150.0 28.1009428818 C 28.4490110322 78.4490110322 61.4825901293 182.296518026 74.8904870729 250.073008618" fill="none" stroke="crimson" stroke-opacity="0.9" stroke-width="0.34" /><path d="M 207.124832751 238.083221834 C 195.321688167 251.570562182 90.4096299396 267.806584638 74.8904870729 250.073008618" fill="none" stroke="magenta" stroke-opacity="0.4" stroke-width="0.34" /><path d="M 150.0 115.449416801 C 90.2137092668 140.213709267 61.4825901293 182.296518026 74.8904870729 250.073008618" fill="none" stroke="crimson" stroke-opacity="0.9" stroke-width="0.34" /><path d="M 150.0 83.1476894719 C 67.3729388282 117.372938828 61.4825901293 182.296518026 74.8904870729 250.073008618" fill="none" stroke="crimson" stroke-opacity="0.9" stroke-width="0.34" /><path d="M 223.309525392 248.873016928 C 208.162296317 266.181610618 90.4096299396 267.806584638 74.8904870729 250.073008618" fill="none" stroke="purple" stroke-opacity="0.4" stroke-width="0.34" /><path d="M 150.0 21.9349898374 C 275.910976178 74.0890238219 273.506541812 175.298691638 254.798775884 269.865850589" fill="none" stroke="purple" stroke-opacity="0.4" stroke-width="0.34" /><path d="M 150.0 41.6077738657 C 262.000217187 87.9997828132 273.506541812 175.298691638 254.798775884 269.865850589" fill="none" stroke="purple" stroke-opacity="0.4" stroke-width="0.34" /><path d="M 254.798775884 269.865850589 C 233.145231455 294.609148562 100.391049067 256.448945138 87.4713710009 241.685752666" fill="none" stroke="red" stroke-opacity="0.4" stroke-width="0.34" /><path d="M 254.798775884 269.865850589 C 233.145231455 294.609148562 131.146141043 221.453395605 126.236023343 215.842651104" fill="none" stroke="blue" stroke-opacity="0.4" stroke-width="0.34" /><path d="M 150.0 115.449416801 C 209.786290733 140.213709267 299.409520548 170.11809589 276.778182184 284.518788123" fill="none" stroke="purple" stroke-opacity="0.4" stroke-width="0.34" /><path d="M 150.0 28.1009428818 C 271.550988968 78.4490110322 299.409520548 170.11809589 276.778182184 284.518788123" fill="none" stroke="purple" stroke-opacity="0.4" stroke-width="0.34" /><path d="M 150.0 151.509559083 C 184.287919595 165.712080405 299.409520548 170.11809589 276.778182184 284.518788123" fill="none" stroke="purple" stroke-opacity="0.4" stroke-width="0.34" /><path d="M 150.0 68.5749343896 C 242.931555111 107.068444889 299.409520548 170.11809589 276.778182184 284.518788123" fill="none" stroke="purple" stroke-opacity="0.4" stroke-width="0.34" /><path d="M 150.0 21.9349898374 C 275.910976178 74.0890238219 236.396104217 182.720779157 223.309525392 248.873016928" fill="none" stroke="purple" stroke-opacity="0.4" stroke-width="0.34" /><path d="M 150.0 21.9349898374 C 24.0890238219 74.0890238219 49.3623297523 179.87246595 64.60610511 256.92926326" fill="none" stroke="red" stroke-opacity="0.4" stroke-width="0.34" /><path d="M 150.0 21.9349898374 C 275.910976178 74.0890238219 200.961197944 189.807760411 193.242010372 228.828006915" fill="none" stroke="purple" stroke-opacity="0.4" stroke-width="0.34" /><path d="M 150.0 21.9349898374 C 24.0890238219 74.0890238219 121.99388493 194.398776986 126.236023343 215.842651104" fill="none" stroke="red" stroke-opacity="0.4" stroke-width="0.34" /><path d="M 150.0 31.5727813667 C 269.096028432 80.903971568 200.961197944 189.807760411 193.242010372 228.828006915" fill="none" stroke="purple" stroke-opacity="0.4" stroke-width="0.34" /><path d="M 150.0 31.5727813667 C 30.903971568 80.903971568 91.7126567926 188.342531359 100.541549233 232.972300511" fill="none" stroke="red" stroke-opacity="0.4" stroke-width="0.34" /><path d="M 150.0 31.5727813667 C 269.096028432 80.903971568 217.32226102 186.535547796 207.124832751 238.083221834" fill="none" stroke="purple" stroke-opacity="0.4" stroke-width="0.34" /><path d="M 150.0 31.5727813667 C 269.096028432 80.903971568 308.469533168 168.306093366 284.465857818 289.643905212" fill="none" stroke="purple" stroke-opacity="0.4" stroke-width="0.34" /><path d="M 150.0 31.5727813667 C 269.096028432 80.903971568 167.776609 196.4446782 165.083952925 210.055968617" fill="none" stroke="purple" stroke-opacity="0.4" stroke-width="0.34" /><path d="M 150.0 31.5727813667 C 269.096028432 80.903971568 236.396104217 182.720779157 223.309525392 248.873016928" fill="none" stroke="purple" stroke-opacity="0.4" stroke-width="0.34" /><path d="M 150.0 41.6077738657 C 262.000217187 87.9997828132 236.396104217 182.720779157 223.309525392 248.873016928" fill="none" stroke="purple" stroke-opacity="0.4" stroke-width="0.34" /><path d="M 150.0 41.6077738657 C 262.000217187 87.9997828132 281.862570035 173.627485993 261.889100948 274.592733965" fill="none" stroke="purple" stroke-opacity="0.4" stroke-width="0.34" /><path d="M 150.0 41.6077738657 C 262.000217187 87.9997828132 167.776609 196.4446782 165.083952925 210.055968617" fill="none" stroke="purple" stroke-opacity="0.4" stroke-width="0.34" /><path d="M 150.0 41.6077738657 C 262.000217187 87.9997828132 308.469533168 168.306093366 284.465857818 289.643905212" fill="none" stroke="purple" stroke-opacity="0.4" stroke-width="0.34" /><path d="M 150.0 41.6077738657 C 262.000217187 87.9997828132 239.093599235 182.181280153 225.598425815 250.398950543" fill="none" stroke="purple" stroke-opacity="0.4" stroke-width="0.34" /><path d="M 172.438740586 214.959160391 C 167.802443434 220.257012773 82.2502090737 277.091011987 64.60610511 256.92926326" fill="none" stroke="green" stroke-opacity="0.4" stroke-width="0.34" /><path d="M 150.0 151.509559083 C 115.712080405 165.712080405 49.3623297523 179.87246595 64.60610511 256.92926326" fill="none" stroke="crimson" stroke-opacity="0.9" stroke-width="0.34" /><path d="M 165.083952925 210.055968617 C 161.967303498 213.617334087 82.2502090737 277.091011987 64.60610511 256.92926326" fill="none" stroke="green" stroke-opacity="0.4" stroke-width="0.34" /><path d="M 264.023415929 276.015610619 C 240.463874494 302.936873128 82.2502090737 277.091011987 64.60610511 256.92926326" fill="none" stroke="purple" stroke-opacity="0.4" stroke-width="0.34" /><path d="M 150.0 115.449416801 C 90.2137092668 140.213709267 49.3623297523 179.87246595 64.60610511 256.92926326" fill="none" stroke="crimson" stroke-opacity="0.9" stroke-width="0.34" /><path d="M 225.598425815 250.398950543 C 209.978263668 268.247960329 82.2502090737 277.091011987 64.60610511 256.92926326" fill="none" stroke="purple" stroke-opacity="0.4" stroke-width="0.34" /><path d="M 150.0 28.1009428818 C 271.550988968 78.4490110322 200.961197944 189.807760411 193.242010372 228.828006915" fill="none" stroke="purple" stroke-opacity="0.4" stroke-width="0.34" /><path d="M 193.242010372 228.828006915 C 184.307337377 239.037572232 110.760664409 244.649585616 100.541549233 232.972300511" fill="none" stroke="green" stroke-opacity="0.4" stroke-width="0.34" /><path d="M 150.0 68.5749343896 C 242.931555111 107.068444889 200.961197944 189.807760411 193.242010372 228.828006915" fill="none" stroke="purple" stroke-opacity="0.4" stroke-width="0.34" /><path d="M 150.0 28.1009428818 C 28.4490110322 78.4490110322 27.3673146189 175.473462924 45.9427158863 269.371522742" fill="none" stroke="red" stroke-opacity="0.4" stroke-width="0.34" /><path d="M 150.0 28.1009428818 C 28.4490110322 78.4490110322 121.99388493 194.398776986 126.236023343 215.842651104" fill="none" stroke="red" stroke-opacity="0.4" stroke-width="0.34" /><path d="M 261.889100948 274.592733965 C 238.770552109 301.010078455 110.760664409 244.649585616 100.541549233 232.972300511" fill="none" stroke="blue" stroke-opacity="0.4" stroke-width="0.34" /><path d="M 284.465857818 289.643905212 C 256.682494874 321.391688133 110.760664409 244.649585616 100.541549233 232.972300511" fill="none" stroke="magenta" stroke-opacity="0.4" stroke-width="0.34" /><path d="M 150.0 115.449416801 C 90.2137092668 140.213709267 76.3093040274 185.261860805 87.4713710009 241.685752666" fill="none" stroke="crimson" stroke-opacity="0.9" stroke-width="0.34" /><path d="M 261.889100948 274.592733965 C 238.770552109 301.010078455 100.391049067 256.448945138 87.4713710009 241.685752666" fill="none" stroke="blue" stroke-opacity="0.4" stroke-width="0.34" /><path d="M 150.0 68.5749343896 C 242.931555111 107.068444889 284.377884362 173.124423128 264.023415929 276.015610619" fill="none" stroke="purple" stroke-opacity="0.4" stroke-width="0.34" /><path d="M 150.0 151.509559083 C 184.287919595 165.712080405 284.377884362 173.124423128 264.023415929 276.015610619" fill="none" stroke="purple" stroke-opacity="0.4" stroke-width="0.34" /><path d="M 264.023415929 276.015610619 C 240.463874494 302.936873128 67.4430531346 293.939752336 45.9427158863 269.371522742" fill="none" stroke="blue" stroke-opacity="0.4" stroke-width="0.34" /><path d="M 264.023415929 276.015610619 C 240.463874494 302.936873128 131.146141043 221.453395605 126.236023343 215.842651104" fill="none" stroke="purple" stroke-opacity="0.4" stroke-width="0.34" /><path d="M 150.0 151.509559083 C 115.712080405 165.712080405 27.3673146189 175.473462924 45.9427158863 269.371522742" fill="none" stroke="red" stroke-opacity="0.4" stroke-width="0.34" /><path d="M 150.0 72.1964799526 C 59.629264315 109.629264315 27.3673146189 175.473462924 45.9427158863 269.371522742" fill="none" stroke="crimson" stroke-opacity="0.9" stroke-width="0.34" /><path d="M 150.0 83.1476894719 C 67.3729388282 117.372938828 27.3673146189 175.473462924 45.9427158863 269.371522742" fill="none" stroke="crimson" stroke-opacity="0.9" stroke-width="0.34" /><path d="M 150.0 68.5749343896 C 57.068444889 107.068444889 27.3673146189 175.473462924 45.9427158863 269.371522742" fill="none" stroke="crimson" stroke-opacity="0.9" stroke-width="0.34" /><path d="M 165.083952925 210.055968617 C 161.967303498 213.617334087 67.4430531346 293.939752336 45.9427158863 269.371522742" fill="none" stroke="red" stroke-opacity="0.4" stroke-width="0.34" /><path d="M 225.598425815 250.398950543 C 209.978263668 268.247960329 67.4430531346 293.939752336 45.9427158863 269.371522742" fill="none" stroke="red" stroke-opacity="0.4" stroke-width="0.34" /><path d="M 150.0 72.1964799526 C 240.370735685 109.629264315 281.862570035 173.627485993 261.889100948 274.592733965" fill="none" stroke="purple" stroke-opacity="0.4" stroke-width="0.34" /><path d="M 150.0 83.1476894719 C 232.627061172 117.372938828 281.862570035 173.627485993 261.889100948 274.592733965" fill="none" stroke="purple" stroke-opacity="0.4" stroke-width="0.34" /><path d="M 150.0 115.449416801 C 209.786290733 140.213709267 281.862570035 173.627485993 261.889100948 274.592733965" fill="none" stroke="purple" stroke-opacity="0.4" stroke-width="0.34" /><path d="M 150.0 72.1964799526 C 240.370735685 109.629264315 176.444309383 194.711138123 172.438740586 214.959160391" fill="none" stroke="purple" stroke-opacity="0.4" stroke-width="0.34" /><path d="M 150.0 72.1964799526 C 240.370735685 109.629264315 217.32226102 186.535547796 207.124832751 238.083221834" fill="none" stroke="purple" stroke-opacity="0.4" stroke-width="0.34" /><path d="M 150.0 68.5749343896 C 242.931555111 107.068444889 308.469533168 168.306093366 284.465857818 289.643905212" fill="none" stroke="purple" stroke-opacity="0.4" stroke-width="0.34" /><path d="M 150.0 83.1476894719 C 232.627061172 117.372938828 308.469533168 168.306093366 284.465857818 289.643905212" fill="none" stroke="purple" stroke-opacity="0.4" stroke-width="0.34" /><path d="M 225.598425815 250.398950543 C 209.978263668 268.247960329 131.146141043 221.453395605 126.236023343 215.842651104" fill="none" stroke="magenta" stroke-opacity="0.4" stroke-width="0.34" /><path d="M 150.0 72.1964799526 C 240.370735685 109.629264315 167.776609 196.4446782 165.083952925 210.055968617" fill="none" stroke="purple" stroke-opacity="0.4" stroke-width="0.34" /><path d="M 150.0 83.1476894719 C 232.627061172 117.372938828 167.776609 196.4446782 165.083952925 210.055968617" fill="none" stroke="purple" stroke-opacity="0.4" stroke-width="0.34" /><svg baseProfile="full" height="100%" version="1.1" width="100%" xmlns="http://www.w3.org/2000/svg" xmlns:ev="http://www.w3.org/2001/xml-events" xmlns:xlink="http://www.w3.org/1999/xlink"><defs /><line stroke="black" stroke-dasharray="4 2" stroke-width="1.5" x1="150" x2="150" y1="200" y2="0" /><circle cx="150.0" cy="152.38504711" fill="orange" fill-opacity="0.5" r="1.8" stroke="red" stroke-width="0.3" /><rect fill="midnightblue" fill-opacity="0.5" height="5.4" stroke="purple" stroke-width="0.5" width="5.4" x="147.3" y="55.3119010656" /><rect fill="midnightblue" fill-opacity="0.5" height="4.2" stroke="purple" stroke-width="0.5" width="4.2" x="147.9" y="81.0476894719" /><rect fill="midnightblue" fill-opacity="0.5" height="4.2" stroke="royalblue" stroke-width="0.5" width="4.2" x="147.9" y="113.349416801" /><circle cx="150.0" cy="41.6077738657" fill="orange" fill-opacity="0.5" r="1.7" stroke="coral" stroke-width="0.3" /><circle cx="150.0" cy="133.273431281" fill="orange" fill-opacity="0.5" r="1.9" stroke="crimson" stroke-width="0.3" /><rect fill="midnightblue" fill-opacity="0.5" height="5.0" stroke="indigo" stroke-width="0.5" width="5.0" x="147.5" y="163.747019637" /><circle cx="150.0" cy="78.8428066846" fill="orange" fill-opacity="0.5" r="1.5" stroke="red" stroke-width="0.3" /><circle cx="150.0" cy="124.270093597" fill="orange" fill-opacity="0.5" r="2.4" stroke="red" stroke-width="0.3" /><circle cx="150.0" cy="72.1964799526" fill="orange" fill-opacity="0.5" r="1.7" stroke="coral" stroke-width="0.3" /><rect fill="midnightblue" fill-opacity="0.5" height="3.4" stroke="purple" stroke-width="0.5" width="3.4" x="148.3" y="20.2349898374" /><circle cx="150.0" cy="31.5727813667" fill="orange" fill-opacity="0.5" r="2.5" stroke="coral" stroke-width="0.3" /><rect fill="midnightblue" fill-opacity="0.5" height="3.8" stroke="indigo" stroke-width="0.5" width="3.8" x="148.1" y="107.677628196" /><rect fill="midnightblue" fill-opacity="0.5" height="4.8" stroke="purple" stroke-width="0.5" width="4.8" x="147.6" y="191.871346255" /><circle cx="150.0" cy="28.1009428818" fill="orange" fill-opacity="0.5" r="2.2" stroke="red" stroke-width="0.3" /><rect fill="midnightblue" fill-opacity="0.5" height="4.2" stroke="royalblue" stroke-width="0.5" width="4.2" x="147.9" y="30.2752323088" /><rect fill="midnightblue" fill-opacity="0.5" height="4.8" stroke="royalblue" stroke-width="0.5" width="4.8" x="147.6" y="98.9106540048" /><rect fill="midnightblue" fill-opacity="0.5" height="3.2" stroke="blue" stroke-width="0.5" width="3.2" x="148.4" y="149.909559083" /><rect fill="midnightblue" fill-opacity="0.5" height="4.6" stroke="blue" stroke-width="0.5" width="4.6" x="147.7" y="92.4565754431" /><rect fill="midnightblue" fill-opacity="0.5" height="5.0" stroke="indigo" stroke-width="0.5" width="5.0" x="147.5" y="66.0749343896" /></svg><svg baseProfile="full" height="100%" version="1.1" width="100%" xmlns="http://www.w3.org/2000/svg" xmlns:ev="http://www.w3.org/2001/xml-events" xmlns:xlink="http://www.w3.org/1999/xlink"><defs /><line stroke="yellowgreen" stroke-opacity="0.6" stroke-width="2" x1="150" x2="300" y1="200" y2="300" /><circle cx="297.770959471" cy="298.513972981" fill="orange" fill-opacity="0.5" r="2.5" stroke="coral" stroke-width="0.3" /><circle cx="202.103960965" cy="234.735973977" fill="orange" fill-opacity="0.5" r="1.3" stroke="purple" stroke-width="0.3" /><rect fill="midnightblue" fill-opacity="0.5" height="3.8" stroke="purple" stroke-width="0.5" width="3.8" x="168.915473443" y="211.976982295" /><rect fill="midnightblue" fill-opacity="0.5" height="4.6" stroke="royalblue" stroke-width="0.5" width="4.6" x="243.078140632" y="261.285427088" /><circle cx="182.048187739" cy="221.365458493" fill="orange" fill-opacity="0.5" r="2.4" stroke="purple" stroke-width="0.3" /><circle cx="231.423478972" cy="254.282319315" fill="orange" fill-opacity="0.5" r="2.3" stroke="coral" stroke-width="0.3" /><rect fill="midnightblue" fill-opacity="0.5" height="3.8" stroke="royalblue" stroke-width="0.5" width="3.8" x="184.093567063" y="222.095711375" /><rect fill="midnightblue" fill-opacity="0.5" height="3.4" stroke="purple" stroke-width="0.5" width="3.4" x="150.438840412" y="199.725893608" /><rect fill="midnightblue" fill-opacity="0.5" height="3.8" stroke="blue" stroke-width="0.5" width="3.8" x="214.759291389" y="242.539527593" /><circle cx="170.215548257" cy="213.477032171" fill="orange" fill-opacity="0.5" r="2.1" stroke="coral" stroke-width="0.3" /><rect fill="midnightblue" fill-opacity="0.5" height="3.4" stroke="purple" stroke-width="0.5" width="3.4" x="291.178479182" y="293.552319455" /><circle cx="293.919508397" cy="295.946338931" fill="orange" fill-opacity="0.5" r="1.6" stroke="red" stroke-width="0.3" /><circle cx="203.994137568" cy="235.996091712" fill="orange" fill-opacity="0.5" r="2.3" stroke="coral" stroke-width="0.3" /><circle cx="225.284615648" cy="250.189743765" fill="orange" fill-opacity="0.5" r="1.8" stroke="coral" stroke-width="0.3" /><rect fill="midnightblue" fill-opacity="0.5" height="3.4" stroke="royalblue" stroke-width="0.5" width="3.4" x="215.001865735" y="242.76791049" /><rect fill="midnightblue" fill-opacity="0.5" height="4.4" stroke="indigo" stroke-width="0.5" width="4.4" x="167.248684001" y="210.765789334" /><rect fill="midnightblue" fill-opacity="0.5" height="4.0" stroke="royalblue" stroke-width="0.5" width="4.0" x="297.010032837" y="297.340021891" /><rect fill="midnightblue" fill-opacity="0.5" height="3.4" stroke="royalblue" stroke-width="0.5" width="3.4" x="274.653539532" y="282.535693021" /><circle cx="254.798775884" cy="269.865850589" fill="orange" fill-opacity="0.5" r="2.5" stroke="purple" stroke-width="0.3" /><circle cx="276.778182184" cy="284.518788123" fill="orange" fill-opacity="0.5" r="1.9" stroke="purple" stroke-width="0.3" /><circle cx="193.242010372" cy="228.828006915" fill="orange" fill-opacity="0.5" r="1.9" stroke="coral" stroke-width="0.3" /><circle cx="264.023415929" cy="276.015610619" fill="orange" fill-opacity="0.5" r="1.8" stroke="crimson" stroke-width="0.3" /><circle cx="261.889100948" cy="274.592733965" fill="orange" fill-opacity="0.5" r="1.7" stroke="coral" stroke-width="0.3" /><circle cx="172.438740586" cy="214.959160391" fill="orange" fill-opacity="0.5" r="1.9" stroke="red" stroke-width="0.3" /><circle cx="207.124832751" cy="238.083221834" fill="orange" fill-opacity="0.5" r="2.0" stroke="red" stroke-width="0.3" /><rect fill="midnightblue" fill-opacity="0.5" height="4.4" stroke="purple" stroke-width="0.5" width="4.4" x="282.265857818" y="287.443905212" /><circle cx="225.598425815" cy="250.398950543" fill="orange" fill-opacity="0.5" r="1.7" stroke="crimson" stroke-width="0.3" /><rect fill="midnightblue" fill-opacity="0.5" height="4.8" stroke="royalblue" stroke-width="0.5" width="4.8" x="162.683952925" y="207.655968617" /><rect fill="midnightblue" fill-opacity="0.5" height="4.4" stroke="indigo" stroke-width="0.5" width="4.4" x="221.109525392" y="246.673016928" /></svg><svg baseProfile="full" height="100%" version="1.1" width="100%" xmlns="http://www.w3.org/2000/svg" xmlns:ev="http://www.w3.org/2001/xml-events" xmlns:xlink="http://www.w3.org/1999/xlink"><defs /><line stroke="blue" stroke-opacity="0.3" stroke-width="2" x1="150" x2="0" y1="200" y2="300" /><circle cx="89.9786030997" cy="240.0142646" fill="orange" fill-opacity="0.5" r="2.0" stroke="red" stroke-width="0.3" /><rect fill="midnightblue" fill-opacity="0.5" height="4.6" stroke="royalblue" stroke-width="0.5" width="4.6" x="109.217703403" y="223.354864398" /><circle cx="145.192545682" cy="203.204969545" fill="orange" fill-opacity="0.5" r="2.4" stroke="red" stroke-width="0.3" /><rect fill="midnightblue" fill-opacity="0.5" height="4.4" stroke="royalblue" stroke-width="0.5" width="4.4" x="110.511347002" y="222.659101999" /><rect fill="midnightblue" fill-opacity="0.5" height="4.0" stroke="purple" stroke-width="0.5" width="4.0" x="124.236023343" y="213.842651104" /><circle cx="86.464973619" cy="242.356684254" fill="orange" fill-opacity="0.5" r="2.0" stroke="red" stroke-width="0.3" /><circle cx="106.833919871" cy="228.777386753" fill="orange" fill-opacity="0.5" r="1.8" stroke="coral" stroke-width="0.3" /><circle cx="99.7871125433" cy="233.475258304" fill="orange" fill-opacity="0.5" r="1.8" stroke="crimson" stroke-width="0.3" /><rect fill="midnightblue" fill-opacity="0.5" height="3.8" stroke="purple" stroke-width="0.5" width="3.8" x="75.9681484731" y="246.187901018" /><circle cx="74.8904870729" cy="250.073008618" fill="orange" fill-opacity="0.5" r="2.2" stroke="red" stroke-width="0.3" /><circle cx="11.1182536971" cy="292.587830869" fill="orange" fill-opacity="0.5" r="2.6" stroke="red" stroke-width="0.3" /><rect fill="midnightblue" fill-opacity="0.5" height="3.6" stroke="royalblue" stroke-width="0.5" width="3.6" x="18.6643564345" y="284.55709571" /><rect fill="midnightblue" fill-opacity="0.5" height="5.4" stroke="indigo" stroke-width="0.5" width="5.4" x="51.435085638" y="261.209942908" /><circle cx="64.60610511" cy="256.92926326" fill="orange" fill-opacity="0.5" r="1.9" stroke="coral" stroke-width="0.3" /><circle cx="51.1471699742" cy="265.901886684" fill="orange" fill-opacity="0.5" r="2.0" stroke="coral" stroke-width="0.3" /><circle cx="28.057747001" cy="281.294835333" fill="orange" fill-opacity="0.5" r="1.6" stroke="red" stroke-width="0.3" /><rect fill="midnightblue" fill-opacity="0.5" height="3.0" stroke="royalblue" stroke-width="0.5" width="3.0" x="85.9713710009" y="240.185752666" /><rect fill="midnightblue" fill-opacity="0.5" height="4.2" stroke="royalblue" stroke-width="0.5" width="4.2" x="43.8427158863" y="267.271522742" /><circle cx="47.7247496669" cy="268.183500222" fill="orange" fill-opacity="0.5" r="1.8" stroke="red" stroke-width="0.3" /><circle cx="31.6614949648" cy="278.89233669" fill="orange" fill-opacity="0.5" r="2.0" stroke="purple" stroke-width="0.3" /><circle cx="100.541549233" cy="232.972300511" fill="orange" fill-opacity="0.5" r="2.1" stroke="crimson" stroke-width="0.3" /></svg></svg>